<?xml version="1.0" encoding="utf-8"?>
<!-- Generator: Adobe Illustrator 24.3.0, SVG Export Plug-In . SVG Version: 6.00 Build 0)  -->
<svg version="1.1" id="sceau-tea_xA0_Image_1_" xmlns="http://www.w3.org/2000/svg" xmlns:xlink="http://www.w3.org/1999/xlink"
	 x="0px" y="0px" viewBox="0 0 1154.7 1140.1" style="enable-background:new 0 0 1154.7 1140.1;" xml:space="preserve">
<style type="text/css">
	.st0{fill:#B63325;}
	.st1{fill:none;}
</style>
<g>
	<path class="st0" d="M835.1,1059.2c-1.5-5-3-9.8-4.3-14.3c-5.1-1-10.1,0.1-13.7-3.8c-4.5,1.6-8.3-2.1-12.6-1.6
		c-3.4,0.4-6.8,0.6-10.1,1.5c-3.6,1-7.2,2.2-10.5,3.9c-3.8,2-7.4,4-11.9,2.4c-1-0.4-2.5-0.4-3.4,0c-5.2,2.3-8.5-0.8-11.8-3.9
		c-2.2-2-4.1-4.3-6.2-6.4c-3.3-3.2-8.3-2.7-11.5,0.8c-3.4,3.6-7.6,5.8-12.5,6.7c-0.8,0.2-2.3-0.2-2.7-0.8c-1.7-2.6-4.2-2.3-6.1-1.2
		c-3.4,1.9-6.9,2.2-10.7,2.5c-5,0.4-9.8,1.7-14.7,2.9c-4.9,1.3-10.5,1.4-15.1-2.5c-3.1-2.7-7.1-2.4-10.9-2.9
		c-5.9-0.8-11.5-1.4-16.9,2.1c-1.5,0.9-4.2-0.2-6.4-0.3c-2.7-0.1-5.4-0.2-8.1,0c-5.1,0.3-10.3,0.9-15.4,1.1c-1.2,0-2.6-0.9-3.7-1.7
		c-6.6-5.5-9-5.6-15-1.2c-1.5,1.1-3.5,1.3-5.7,2.1c-0.8,2.9-3.2,5-6.6,3.9c-7-2.3-14.1-1-21.2-1.4c-4.4-0.3-8.9-1.1-13.1-2.5
		c-5.1-1.7-9.3,0.3-13.9,1.4c-4.2,1-8.9,0.2-13.3,0.1c-0.5,0-1-0.5-1.4-0.5c-6.4,1.2-13.2,0.3-19.3,3.6c-4.2,2.3-8.4,2.8-13,0
		c-3.7-2.3-7.9-3.8-11.9-5.5c-3.4-1.4-4.5-0.6-4.5,3.1c0,2,0.2,4.1,0.3,5.1c-1.3,1.7-2.2,4-3.2,4.1c-2.9,0.3-6.5,0.5-8.8-0.9
		c-2.5-1.5-5.5-3.6-5.4-7.8c0-1.5-2.6-3.8-4.4-4.3c-1.7-0.5-4.2,0.4-5.8,1.4c-5.5,3.6-10.1,1.9-14.8-1.4c-3.2-2.3-5.6-1.6-8.2,1.6
		c-1.2,1.4-4.8,1.6-7.1,1.2c-3.9-0.7-7.7-2.2-11.5-3.5c-2.1-0.8-4.1-1.9-6.2-3c-2.1-1.1-3.7-1.2-6.1,0.3c-3.6,2.2-7.2,7.1-12.6,3
		c-0.3-0.2-1.7,0.4-2.1,1c-2.3,2.9-4.5,5.9-6.8,9c-0.6-0.3-1.5-0.4-1.7-0.8c-3.4-5.9-8.7-2.8-13.3-2.9c-7.5-0.2-15.2,1.9-22.1-3.5
		c-3-2.3-7.1-3.4-10.9-4.3c-1.5-0.3-3.6,1.4-5.1,2.6c-3.2,2.8-5.8,6.6-10.6,7c-1.7,0.1-3.4-0.5-4.6-0.7c-2.8,0-5.1,0-7.3,0
		c-5.1,0.1-10.1,0-15.2,0.2c-7.5,0.3-15,0.8-22.5,1.2c-0.3,0-0.5,0.1-0.8,0.1c-3.9-0.2-7.7-0.7-11.6-0.6c-2.8,0.1-5.6,0.8-8.3,1.5
		c-3.6,0.9-6.4,0.6-8.6-2.9c-0.5-0.9-2.9-1-4.4-0.8c-1.9,0.2-3.7,1-5.6,1.5c-2.9,0.7-5.8,1.9-8.6-0.6c-0.8-0.7-2.8-0.2-4.2-0.4
		c-3.4-0.5-6.9-0.9-10.3-1.6c-3-0.6-5.9-2.2-8.8-2.1c-3.7,0.1-5.6-2.1-8-3.9c-3.9-2.9-7.6-2.3-10.4,1.6c-1.8,2.5-3.8,3.9-7.2,3.7
		c-4.5-0.3-9.1,0.3-13.6-0.2c-4.3-0.5-8.5-1.9-12.8-2.7c-1.9-0.3-4.1-0.6-5.9,0c-7.6,2.7-14.3,1.3-20.7-3.3
		c-6.6-4.6-13.5-8.9-20.1-13.3c-0.5-5.6,0.7-11.4-4.2-15.6c-0.4-0.4-0.7-1.2-0.6-1.8c0.7-5.4-3.7-9.2-4.3-14.1
		c-1-7.2-3.9-14.8-0.4-21.7c1.8-3.5,1.2-6.2,0.7-9.3c-0.2-1.1,0.3-2.3,0.2-3.4c-0.2-1.8-0.4-3.7-1.2-5.2c-1.4-2.4-2.4-4.4-1.7-7.5
		c0.5-2.1-0.6-4.6-1-6.9c0-0.1-0.1-0.2-0.1-0.4c-0.2-4.8-0.7-9.5-0.6-14.3c0-1.3,1.9-2.4,2.6-3.7c0.8-1.6,1.3-3.4,1.7-5.2
		c0.8-4,1.4-8,2.1-12c0.1-0.6,0.3-1.4,0.1-1.9c-2.5-4.8-5.1-9.6-7.6-14.3c0.5-3.3,1-6.9,1.6-10.4c0.4-2.1-0.5-4.2,1.7-6.3
		c1.5-1.5,1.6-5.1,1.3-7.7c-0.5-5.1-1.9-10-2.5-15.1c-0.7-5.4-1.1-10.9-1.3-16.3c0-1.2,1.2-2.7,2.1-3.8c3.4-3.9,4.6-13.3,1.9-17.3
		c-0.3-0.5-0.7-1.5-1.1-1.5c-4.8-0.4-4.1-4.5-5.3-7.4c2.9-2.6,4.6-5.8,4.5-9.7c0-2.9-0.4-5.8,2.1-8.2c0.7-0.7,1.1-3,0.5-3.5
		c-4.3-4.6-2.1-8.8,0.1-13.2c0.5-1,0.3-2.4,0.4-3.6c0.1-1-0.3-2.3,0.2-3c3.1-4.2,4.8-7.8,0.1-12.5c-2.4-2.4-3.4-6.7-4.1-10.3
		c-0.9-4.7-0.7-9.5-1-14.3c0-0.5,0.2-1.2,0.5-1.4c4.7-2.5,3.6-6.8,3.7-10.9c0.1-4.4,0.8-8.7,1-13c0.1-1.8,0-3.7-0.6-5.3
		c-1.4-4.1-3.7-8-4.5-12.2c-1.2-6,1.7-10.5,6.7-14c2.6-1.8,2.1-3.8-0.1-4.9c-1.3-4.7-2.4-8.7-3.6-12.6c-0.2-0.6-0.8-1.3-0.7-1.7
		c1.4-3.3,2.6-6.8,4.6-9.6c2-2.8,2.3-7.5-0.3-9.7c-7.3-6.1-6.8-12.6,0.9-18.4c1.6-1.2,4.7-1.2,2.8-5.8c-2.1-5.1-3.9-10.3-6.3-15.3
		c-2.8-5.7-4.6-12.1-1.5-18.8c2.3-4.9-0.3-10-1.1-15c-0.4-2.2-0.6-4.6-0.3-6.8c0.6-4.3,0.5-8.3-1.6-12.3c-1.5-2.8-1.1-6,0.9-8.7
		c1.6-2.2,3.2-4.2,4.9-6.5c-1.5-1.8-2.9-3.4-4.2-5.1c-0.3-0.5-0.5-1.2-0.4-1.8c0.4-2.6,1.1-5.2,1.3-7.8c0.7-7.5,1.5-15.1,1.6-22.6
		c0.1-4.9-0.8-9.9-1.2-14.8c-0.1-1.1,0.1-2.3,0.1-3.4c-0.1-0.9,0-2-0.6-2.6c-3.7-4-3.6-8.1-1.1-12.7c1.1-2,0.7-5.7-0.5-7.8
		c-2.1-3.5-2.4-5.9-0.2-9.7c1.8-3.2,1.7-7.7,1.4-11.6c-0.3-4.4,1-7.7,4.2-10.4c1.6-1.4,1.7-5.5,0.5-7.2c-1.6-2.3-3-4.8-4.2-7.3
		c-0.4-0.7-0.2-2.1,0.3-2.7c3.9-4.9,0.3-9.4-0.7-14c-0.2-1-0.7-2-1.1-3c-0.7-2.2-1.2-4.6-2.1-6.7c-1-2.3,0.2-7.3,2.3-9.6
		c1.4-1.5,3.4-3.4,3.2-5c-0.2-2.1-2.6-3.8-3.4-6c-1.4-3.7-3-7.7-0.7-11.5c2.2-3.7,0.4-7.1,0.1-10.7c-0.4-3.8-0.6-7.5-0.9-11.3
		c0-0.2,0.1-0.6,0.2-0.7c5.3-2.5,2-6.6,1.2-9.6c-1.6-6.6-2.9-12.9-1.2-19.8c0.6-2.6,0.4-5.9-1.5-9c-1.4-2.2-0.5-6.2,0.3-9.2
		c0.7-2.6,2.6-4.9,3.8-7.3c0.5-0.9,0.7-2,0.8-3c0.3-6,0.5-12-2.7-17.5c-0.6-1.1,0-3,0.3-4.5c0.6-3.7,2.9-6.9,2-11
		c-0.7-3.3,0.3-7,0.1-10.4c-0.2-2.5-1.1-5-2.1-7.4c-2-4.9,0.3-9.3,1.4-13.9c0.5-2.1,1.3-4.3,1.3-6.4c-0.1-4.6-0.8-9.1-0.9-13.7
		c-0.1-4,0.4-7.9,0.6-11.9c0.3-4.6,0.5-9.2,1-13.8c0.2-2.1,1.1-4.1,1.6-6.1c0.4-1.5,0.7-3,0.8-4.5c0.3-6.2,0.5-12.4,0.8-18.6
		c0-0.8,0.7-1.6,1.2-2.4c1.4-2,0.8-4.1,1-6.2c0.6-7.6-2.4-15.5,2.3-22.8c1.7-2.6,1.8-6.3,2.5-9.5c0.2-0.9-0.3-1.9,0-2.7
		c1.2-3.2,1.7-7.9,3.9-9c4-2,9.1-3.5,13.9-0.9c0.8,0.4,1.7,0.9,2,1.7c1.6,3.5,3.6,3.2,6.5,1.6c1.5-0.8,3.5-0.7,5.3-0.9
		c4.5-0.6,8.9-1.1,13.4-1.7c5.9-0.7,11.9-1.3,17.8-2.1c4.9-0.7,9.8-2.1,14.7-2.8c3.4-0.5,7-0.9,10.3-0.2c9.9,2.1,19.9,1.9,29.8,1.3
		c4.3-0.3,8.4-2.6,12.7-2.7c5.6,0,11.1,1.4,16.7,2c2.2,0.2,4.7,0.4,6.6-0.5c6.7-3.4,13.8-3.1,20.4-1.5c5.9,1.4,11.2,1.3,16.5-0.6
		c4.1-1.5,7.1,0.5,9.9,2.7c3.6,2.9,6.5,3.5,9.7,0.5c3.8-3.6,7.6-2.8,12.2-1.9c4.5,0.9,9.2,2.1,14.2-0.3c2.8-1.3,7.2,0.5,10.8,0.8
		c2.2,0.2,5,1.4,6.4,0.5c4.4-2.8,7.7,0,11,1.5c3.6,1.6,12.3,1.8,15.4-0.7c4.5-3.6,4.6-3.4,9.7-0.3c1.5,0.9,4.2,0.3,6.2-0.3
		c2.2-0.6,3.5-0.8,5.5,1c1.2,1.2,4,0.8,6.1,0.8c1.8,0,4-1.2,5.5-0.5c5.5,2.4,11.2,2.8,17.1,2.6c0.8,0,1.6,0.6,2.5,0.7
		c1.5,0.1,3.3,0.7,4.4,0c4-2.4,8-2,12.1-0.6c1.6,0.6,3.3,0.8,4.7,1.7c1.5,0.9,3.1,2,3.8,3.5c0.4,0.8-0.9,2.6-1.9,3.7
		c-3,3.2-2.9,4.5,1,6.5c2.7,1.4,5,3.2,8.6,2.1c1.6-0.5,3.9,1.5,5.6,2.2c0.1,0.6,0.3,0.8,0.2,1c-0.5,2.3-0.7,5.1,2,5.4
		c1.6,0.1,3.9-2.1,4.9-3.8c1-1.7,0.7-4.2,1-6.5c-1.6-0.3-2.9-0.6-4.1-0.9c0-0.3,0-0.6,0-0.9c2.6-0.3,5.1-0.5,7.7-0.8
		c1.4-0.2,2.9-0.3,4.2-0.7c0.8-0.3,2.1-1.2,2-1.6c-0.1-1-0.8-2.1-1.7-2.6c-1.3-0.8-2.8-1.1-4-2.5c0.6,0.1,1.3,0.1,1.9,0.4
		c2.1,0.9,4.2,2.4,6.6,0.5c0.6-0.5,1.7-0.5,2.6-0.6c7.4,0,14.8,0.2,22.2-0.1c3-0.1,6.1-1.3,9-2.1c5.4-1.4,8.6,0,10.6,5.2
		c0.3,0.9-0.3,2.1-0.4,3.1c-0.2,1.8-0.9,4.9-0.3,5.2c1.9,1,4.4,1,6.6,1.2c1.2,0.1,2.5-0.5,3.6-0.3c2.9,0.5,4.5-0.5,5.3-3.4
		c0.9-3,2.3-6,3.8-8.8c0.5-1,2.1-2,3.1-2c4.2,0.2,8.4,0.9,12.6,1.4c2.8,0.3,5.5,0.6,8.2,0.9c3-6.7,10.2-10.2,16.8-8.1
		c0.8,0.2,1.4,1.7,1.6,2.7c1,4.2,1.2,4.1,4.8,2c1.4-0.9,4.4-0.6,5.9,0.4c3.1,2,6.3,3.3,9.9,2.9c1.3-0.2,2.8-0.6,3.9-1.3
		c4.6-2.9,8.7-2.5,12.4,1.3c1.6,1.7,6.1,1.7,7.2-0.4c2.4-4.3,6.3-4,10.3-4.3c7.4-0.5,14.8-1.2,22.1-1.9c1.2-0.1,2.2-1.2,3.3-1.9
		c3.5-2.2,8.3-0.3,9.1,3.6c0.4,2.3,1.3,2.7,3.5,2.3c10.8-2,21.5-1.5,32.2,0.6c3.4,0.7,6.6,2.2,9.9,2.6c3.3,0.3,6.7-0.1,10-0.6
		c3.6-0.5,7.1-1.4,10.5-2.4c0.7-0.2,1.3-1.6,1.5-2.5c1.2-5.3,3.8-6.3,8.1-3.1c-2.9,5.6-2.2,7.2,4.1,8.7c1.5,0.4,3,0.7,4.5,1.2
		c3,1.1,5.1,0.3,6.8-2.4c0.5-0.8,0.9-1.7,1.6-2.2c1-0.7,2.2-1.5,3.4-1.6c0.7-0.1,2.3,1.3,2.2,1.7c-0.4,1.3-1.2,2.5-2.1,3.5
		c-0.9,1-2.1,1.7-3.2,2.6c1.4,0.9,2.7,2.2,4.3,2.7c6.8,2.2,10.7-0.5,12.6-7.6c0.4-1.4,2.7-2.9,4.3-3.2c3.8-0.5,7.7-0.3,11.6-0.4
		c1.9,0,4-0.5,5.6,0.1c5,1.9,9.6,3.4,14.5-0.3c2.2-1.7,8.8,1.8,10.2,4.9c3.3,7.1,5.3,8.2,12.2,5.2c2.8-1.2,4.9-3.9,7.4-6
		c0.7-0.6,1.1-1.5,1.8-1.8c5-2.3,14.3,0.2,17.8,4.6c2.1,2.7,6.5,4,10.4,1.9c4.1-2.2,8.6-4.5,8.7-10.5c0-3.5,1.9-3.9,5.3-2.8
		c2.5,0.8,5.5,0.5,8.2,0.2c2.4-0.3,4.7-1.6,7.1-1.8c1.7-0.2,3.9,0.2,5.3,1.2c3,2,6,2.6,9.5,2.1c2.4-0.3,5,0.8,7.3,0.2
		c3.7-0.9,6.9-1.6,10.7-0.2c2.4,0.9,5.4,0.3,8.1-0.1c4.8-0.7,9.2,0,13.8,1.8c3.4,1.4,7.6,1.4,11.4,1.3c1.2,0,2.9-2.3,3.3-3.8
		c0.9-3.9,3.3-3.3,4.9-1.5c2.6,2.9,5.8,2.6,8.9,2.4c4.6-0.3,9.2-0.9,13.8-1.4c4.4-0.5,8,0.9,10.8,4.4c0.6,0.8,2,1.7,2.7,1.5
		c5.8-1.3,10.4,1.7,15.3,3.7c1.8,0.7,3.5,1.7,5.4,2.1c4.4,0.8,6.1,3.7,6.5,7.6c0.3,2.2,0.5,4,3.1,5.2c1.5,0.7,2.1,3.4,3,5.2
		c1.1,2.3,1.5,5,3,6.9c2.5,3.4,5.7,6.1,3,11c-1.7,3.1-2.5,6.6-3.9,9.9c-1.2,2.9,0.7,10.7,3.3,12.5c0.4,0.3,1,0.6,1.2,1
		c1.3,3.2,2.6,6.5,3.8,9.8c0.2,0.4-0.4,1.1-0.7,1.7c-2.2,4.5-4.8,8.7-6.3,13.4c-0.9,2.7-0.7,6.4,0.5,8.9c2.5,4.9,2.6,9.3,0.8,14.4
		c-1.5,4.2-2.2,8.7-2.8,13.2c-0.2,1.7,0.9,3.5,1.6,5.3c0.5,1.2,1.5,2.2,1.8,3.3c2.3,7.9,5,15.7,6.5,23.7c0.9,4.9,0,10.2-0.3,15.3
		c-0.2,3-0.8,5.9-1,8.8c-0.3,4.1-0.7,8-4.7,10.6c-2.2,1.5-0.5,8.3,1.7,10.4c2.1,1.9,4.6,4.2,5.2,6.8c1.6,6.5,2.6,13.1,3,19.8
		c0.2,3.4-1.5,6.9-1.7,10.4c-0.2,2.6,0.7,5.2,0.7,7.9c0,1.9-0.1,4.4-1.2,5.7c-1.8,2.1-2.5,4.1-2.1,6.7c0.5,3.3,0.9,6.6,1.3,10
		c0.1,0.6-0.1,1.4,0.2,1.9c4.5,7.6,0.3,14.8-1.3,22c-1.2,5.5-1.5,10.6,0.6,15.6c1.3,3.1,1,5.7-1.4,7.7c-2.2,1.9-2.1,3.9-1.3,6.3
		c2.3,6.2,5,12.3,6.6,18.7c1.1,4.2,0.3,8.8,1,13.1c1.2,7.4-2,14.5-1.6,21.6c0.4,6.1-0.9,12,1.3,18.4c2.2,6.4,4.1,13.7-2.1,20.7
		c-5.6,6.3-2.8,13.6,2,19.6c5.1,6.3,5.5,12.6,2.2,20.1c-2,4.5-2.1,9.9-3.2,14.8c-2.8,12.7,1.3,25.1,1.6,37.7c0,1.3,0.3,2.7,0.9,3.7
		c3.6,5.3,1.8,10.6,1,16.2c-0.6,4.1-2.4,7.3-4.2,10.8c-2.1,4-3.2,8.4-1.5,13c0.3,0.7,0.5,1.6,1.1,2c4.2,3.6,4.5,5.9,2.5,10.8
		c-1.2,3.1-2.1,6.5-0.2,10c1.9,3.4,3,7.2,4.3,10.9c0.2,0.7-0.1,1.8-0.6,2.4c-2.8,3.2-3.7,6.5-2.7,10.8c0.8,3.5,0.1,7.4,0.2,11.1
		c0.1,7.5,1.6,15.4,0.1,22.5c-1.5,7.2,0.2,14.8-4.1,21.7c-2.3,3.7-3.2,8.9,0.3,13.7c1.5,2.1,1.1,5.7,1.3,8.7c0.4,4.9,0.6,9.9,1,14.9
		c0.2,4,0.7,8,0.7,12c-0.1,7.2-0.2,14.4-0.9,21.6c-0.9,8.9-2.4,17.7-3.5,26.6c-0.5,3.8-0.7,7.7-0.8,11.6c0,0.9,0.7,1.9,1.4,2.6
		c5.3,5.1,6.4,11.1,4.8,18.1c-0.4,2,0.5,4.2,0.6,6.4c0.3,5,0.5,9.9,0.8,14.9c0.4,8.8-3,16.3-8.3,23c-2.3,3-3.1,5.2-0.3,8.8
		c2.2,2.8,2.7,6.9,3.6,10.6c0.9,3.5,1.3,7.2,1.8,10.8c0.1,0.8-0.2,1.9-0.6,2.6c-3.7,5.6-4,12-4.8,18.3c-0.3,2.3-1.7,4.6-3.3,6.4
		c-3.4,4-2.1,8.6-0.3,11.8c4.3,7.9,5.4,16,5.1,24.6c-0.1,4.1,0,8.2,0.1,12.3c0.1,3.6-0.6,6.4-3.3,9.5c-4.8,5.5-8.3,12.1-12.7,18
		c-1.4,1.9-3.6,3.2-5.5,4.7c-0.6,0.5-1.3,0.8-1.9,1.3c-4.1,3.6-8.5,5-14.1,4.4c-2.7-0.3-5.5,2.1-8.4,2.6c-2.5,0.5-5.2,0-7.8-0.1
		c-0.2,0-0.5-0.4-0.7-0.3c-11.2,1.4-21.4-5.5-32.7-4.1c-2.4,0.3-5-0.7-7.4-0.6c-1.4,0.1-3.3,1-3.9,2.1c-3.6,7-9.6,6.9-16,6.1
		c-2.2-0.3-4.5-0.8-6.5-0.4c-7.2,1.7-13.7-0.5-20.5-2.4c-4.8-1.4-9.3-2.7-13.3-5.8c-3.9-3-7.9-2.3-10.8,1.7c-3.5,4.8-8.5,4.1-13.4,4
		c-1.4,0-2.8-0.9-4.2-0.7c-4.6,0.7-7.6-1.4-10.7-4.3c-1.4-1.3-5.7-1.8-6.7-0.8c-3.5,3.6-8.9,2.4-12.4,5.6c-2.9,2.7-6.1,5-9.3,7.4
		c-2,1.5-4.1,3.1-6.4,4.2C839.3,1058,836.8,1058.6,835.1,1059.2z M971.6,211.4c2.4-5.2,5.4-10,6.9-15.2c1.3-4.3-1.9-9.4,1.1-13.8
		c0.1-0.2-0.2-0.7-0.4-1.1c-0.8-2-1.8-4-2.5-6.1c-2.2-7.2-1.7-9.3,4.4-12.9c0.9-0.6,2.4-1.6,2.3-2.2c-0.5-3.1-0.9-6.4-2.4-9
		c-2.9-5.4-3-7.2,1-11.7c0.7-0.8,1.4-2.6,1-3c-2.1-2.1-4.3-5-6.9-5.4c-4.4-0.7-8.1-1.6-10.5-5.8c-1.2-2.1-3-2.2-4.4,0.4
		c-1.6,3.2-3.9,5.4-7.9,5.2c-2.7-0.1-5.5-0.3-8.2-0.1c-1.5,0.1-3.3,0.3-4.3,1.2c-2.9,2.8-6,1.7-9.4,1.7c-6,0-12.2,0.7-18.1,1.7
		c-4.4,0.8-8.6,2.7-13.2,1c-1.1-0.4-2.4-0.7-3.4-0.4c-4,1.3-7.2,0.4-10.9-1.5c-5.3-2.8-10.3-5.3-12.1-11.7c-0.3-1-2.4-1.8-3.8-2
		c-0.7-0.1-2.3,1.4-2.4,2.3c-0.2,2.7,0,5.4,0.1,8.1c0,1,0.4,2,0.1,2.9c-0.3,1-13.6,5.7-14.6,5.4c-0.1,0-0.3-0.1-0.4-0.1
		c-6.4-2-12.7-4-19.1-5.9c-1.7-0.5-3.6-0.6-5.3-0.2c-4.8,1.2-9.4,3-14.1,4.2c-6,1.5-11.6,6.5-18.3,2c-0.3-0.2-0.8-0.1-1.1-0.1
		c-3.4-0.5-6.8-1-10.2-1.5c-3.3-0.4-6.6-1.5-9.8-1c-3.1,0.4-5.8,1.5-8.7-0.8c-0.7-0.6-2.2-0.4-3.3-0.4c-3.9,0-7.8,0.7-11.6,0.1
		c-5-0.8-9.7-1.7-14.9,0.2c-2.9,1.1-7.2,0.3-10.1-1.2c-5-2.7-9.6-5.5-15.5-3.9c-0.5,0.1-1.1,0.1-1.5,0c-5-1.8-9.2,0.7-13.6,2.5
		c-3.8,1.6-6.6,1.3-8.2-2.1c-0.5-1.1-1.7-1.8-2.6-2.7c-0.8,0.9-1.7,1.8-2.2,2.8c-2.1,4.5-5.4,5.9-9.9,4.1c-0.6-0.2-1.3-0.4-1.9-0.4
		c-3.7,0.2-5.6-1.9-6.5-5.2c-0.7-2.5-5.1-3.9-6.5-2c-3.9,4.9-9.5,5-15,4.9c-3.8-0.1-7.5-1.2-11.2-1.7c-0.9-0.1-2.3,0.1-2.9,0.7
		c-2.7,3-6,2.7-9.4,2.4c-1.4-0.1-2.8,0.5-4.2,0.6c-6.5,0.8-13,2.1-19.5,2.3c-5.2,0.1-10.3-1.4-15.5-1.7c-4.9-0.3-10.5-3-14.4,2.8
		c-0.4,0.6-1.8,0.5-2.8,0.6c-5.4,0.7-10.8,1.3-16.2,2.2c-4.1,0.7-8,3.2-12.4-0.4c-2.3-1.9-5.8-2.9-8.9-3.2
		c-5.1-0.5-10.2-0.3-15.3-0.2c-3.2,0.1-5.7-0.8-7.2-3.9c-0.4-0.9-1.6-2.2-2.3-2.1c-4.7,0.8-10.1,0.8-13.8,3.3
		c-3.2,2.2-5.1,1.6-7.9,0.5c-3.3-1.3-6.7-3-10-3c-5.9,0-10-2.3-13.1-7.1c-0.3-0.5-1.5-0.7-2.4-0.7c-3.3-0.2-4.8,2.6-7.1,4.1
		c-4.2,2.8-9,4.7-13.6,6.9c-3,1.4-5.9,3.3-9,3.8c-3.7,0.5-7.7,0.1-11.4-0.7c-2.3-0.4-3.9-0.3-5.8,0.9c-2.5,1.7-4.8,1.8-7.3-0.6
		c-1-1-3.3-0.6-5.1-0.6c-0.8,0-1.6,0.5-2.4,0.6c-8.4,0.5-17,0.3-25.3,1.5c-7.4,1-14.5,1.7-21.8,0.3c-0.5-0.1-1.1-0.2-1.4-0.6
		c-2.4-2.6-5.2-2.7-8.4-1.9c-3.4,0.9-6.7,1.6-9.4-1.6c-1.8-2-4.1-2.1-5.8-0.3c-2.2,2.3-4.3,1.5-6.6,0.5c-4.6-1.8-9.3-3-14.4-2
		c-2.2,0.4-4.5,0.5-6.8,0.7c-5.7,0.5-12.2-4-17,2.5c-0.1,0.2-0.5,0.2-0.7,0.2c-3.7,0.4-7.4,1.1-11.1,1.1c-4.7,0-9.4-0.8-14.2-0.9
		c-2.9-0.1-5.9,0.8-8.8,0.7c-4.9-0.1-9.8-0.5-14.7-0.8c-1.1-0.1-2.2-0.5-3.4-0.7c-3.9-0.6-7.8-1.9-11.6-1.6
		c-5.6,0.4-11.4,0.2-16.5,3.8c-3.4,2.4-7.5,4-11.1,6.2c-0.7,0.4-1.1,1.8-1.2,2.7c-0.2,6-0.3,12-0.3,18c0,0.5,0.1,1.2,0.4,1.5
		c2.3,2.2,0.4,3.9-0.6,5.8c-0.8,1.6-1.4,3.3-2.2,4.9c-0.4,0.9-1,1.7-1.5,2.5c-1.5,2.3-4.5,4.8-4.2,6.9c0.5,4.1,2.8,7.7,1.5,12.5
		c-1,3.6,0.6,7.9,0.7,11.9c0.2,4.6,0,9.2,0,13.8c0,2.1,0.2,4.2,0,6.3c-0.2,3.5,0.4,7.6-1.1,10.4c-2.6,4.7-3.2,8.4,0.2,12.5
		c0.6,0.7,1.1,1.6,1.4,2.5c1.4,4,2.7,7.9,3.8,11c-0.9,4-1.9,7.4-2.3,10.8c-0.5,4.3,1.4,6.4,6.2,7.1c-1,3-1.1,6.8-3.1,8.8
		c-3.7,4-3.9,8.4-2.3,12.5c1.4,3.8,2.7,7.6,3.7,11.6c1.3,5.5,0.7,10.3-2.4,14.9c-3.2,4.7-3.8,9.7-1.3,14.8c1.1,2.2,1.1,4.1,0.8,6.4
		c-0.2,1.9,0.1,4.2,1,5.9c4.7,8.8,6.3,18.1,4.2,27.9c-0.5,2.3-0.7,4.6-0.6,6.9c0.2,6.3,0.9,12.5,0.9,18.8c0,2.6-1.1,5.2-4.8,5.9
		c-1.7,0.3-3.6,2-4.5,3.6c-0.9,1.6,0,3.1,2.1,4.2c2.4,1.3,3.5,6.2,1.9,7.7c-2.9,2.8-2.7,6.4-3.2,9.9c-0.2,1.2,1,2.6,1.6,3.9
		c1.5,3.1,4.1,6.1,4.4,9.2c0.6,6.2-0.3,12.6-0.3,18.8c0,1.8,0.2,4,1.2,5.2c2.9,3.5,1,5.9-1.1,8.4c-0.4,0.5-1.1,0.9-1.2,1.5
		c-0.3,5.1-0.6,10.3-0.7,15.4c-0.1,4.2-0.1,8.4-0.1,12.6c0,3-1,6.7,0.3,9c2.4,4.2,2.6,7.7,1.7,12.5c-0.9,4.3,1.3,9.2,2.1,13.9
		c0.2,1.1,0.6,2.3,0.4,3.4c-0.4,3-1.3,6-1.4,9c-0.1,4,0,8.1,0.9,12c1,4.9-1.7,7.3-5.1,9.4c-4.5,2.9-6.1,10.4-3.3,15
		c2.7,4.5,6,9.5,4.1,14.8c-3,8.1-1.3,16.2-1.3,24.3c0,1.2,0.9,2.5,1.4,3.7c1.2,3.1,3.4,6.1,0,9.2c-2.1,2-1,4.2-0.3,6.5
		c0.5,1.5,0.4,3.3,0.3,4.9c-0.2,3.6-1.9,7.4,1.6,10.4c2,1.7,2.4,4.1,0.9,5.9c-2.9,3.4-1,6.6-0.6,10c0.8,8.8,4.7,17.1,4,26.1
		c-0.2,2.5,0.4,5.2,1.1,7.7c1.8,6.1,2.4,12-1.4,17.7c-1,1.5-0.8,3.8-1.4,5.5c-2.9,7.8,0.9,16.4-3,24.1c-1,1.9-0.4,4.8-0.1,7.1
		c0.4,4.6-1.4,9-4.5,9.2c-2.7,0.2-4.5,0.8-4.8,3.8c-0.3,2.9,1.5,3.8,3.8,4.5c3.1,1,4.8,2.9,5.4,6.5c1.3,8.6-0.2,17.8,5.4,25.5
		c0.1,0.2,0.2,0.5,0.1,0.7c-2,5.2,0,8.5,4.6,11c2,1.1,1.6,3.1-0.2,4.2c-3.6,2.1-5.5,7.9-3.6,11.6c2.5,4.8,7.1,8.3,8.3,13.9
		c0.1,0.4,0.7,0.7,1.1,1.1c3,3.3,2.8,5.8-0.8,8.5c-2.4,1.8-5.4,3-7.2,5.2c-3.8,4.6-7.1,6.5-12,3.3c-5.1-3.3-10.7-2.9-16-4.5
		c-4-1.2-8.8-1.1-12.1-3.2c-3.8-2.4-4.8,0.1-6.8,1.7c-1.9,1.6-3.3,3.2-2.1,6c1.3,3.2,2.4,6.5,3.6,9.7c1.4-0.1,2.5-0.4,3.4-0.2
		c3.9,0.7,7.5,1.9,11.7,0.2c2.4-0.9,5.6-0.2,8.3,0.3c3.6,0.7,7.1,2.1,10.7,2.9c3.2,0.7,6.5,1.7,9.6-0.9c0.8-0.7,2.6-0.2,4-0.1
		c1.8,0.2,3.5,0.5,5.3,0.8c3.7,0.5,7.3,1.8,8.1,5.8c0.8,4.6,6.1,8.2,3.4,13.6c-1.7,3.3-3.1,6.9-5.7,9.5c-3.1,3.1-6.3,5.3-5.9,10.5
		c0.1,1.7-2.6,3.5-3.9,5.3c-1.5,2-12.8,5-13.7,3.3c-2.2-3.9-6.7-6.4-7-11.5c-0.1-1.7-0.4-3.3-0.8-5c-0.8-3.5-3-4.9-6.7-5.1
		c-5.6-0.2-11.2-1.4-16.8-1.3c-4.7,0.1-9.5,0.8-13.8,2.4c-2.3,0.9-3.6,4.4-5.2,6.8c-2,3-1.7,5.9,1.3,7.4c3.1,1.6,2.8,3.9,2.5,6.5
		c-0.7,7-1.9,14-1.8,20.9c0.1,5.3,2,10.5,3.1,15.8c0.3-0.3,0.6-0.6,0.9-0.9c2,1.6,4,3.3,6.2,4.7c2.1,1.4,3.9,3.7,6.9,2.2
		c2.8-1.4,1.5-3.7,1.1-5.7c-0.9-4.1,0.1-7.8,2.9-11c2.3-2.6,8.6-3.6,11.6-1.8c2.5,1.5,5.1,3,7.8,4.2c2.4,1,5.3,2.1,6-1.9
		c0.7-3.7,3.3-4.5,6.2-5.2c1.3-0.3,2.5-1.2,3.8-1.4c4.8-0.6,9.6-1.1,14.4-1.5c0.4,0,0.9,0.8,1.4,1.2c2.4,2.4,4.7,3.1,8.2,1.4
		c3.1-1.5,6.1-4.9,10.6-1.5c1.5,1.1,5,3.7,8.3,0.2c1.9-1.9,5.6-2.4,8.5-3c2.4-0.5,5-0.2,7.5-0.2c2.7,0,4.5-1.6,6.7-2.9
		c3.6-2.1,8-2.9,12.2-4c3.1-0.8,6.4-0.9,9.4-1.8c3.3-1,6.9-0.4,9.8-3.1c3.3-3.2,7.3-3.3,11.4-1.3c2.7,1.4,5.2,0.8,7.6-1
		c1.7-1.3,3.5-2.6,5.5-3.3c8.2-2.8,16.5-3.1,24.5,0.6c1.7,0.8,3.4,1.8,4.5,3.2c2.6,3.3,4.8,4,8.6,2.2c0.8-0.4,1.6-0.7,2.4-0.8
		c5-0.6,10-1.2,15.1-1.6c1.7-0.1,3.7-0.1,5.3,0.6c3.6,1.5,5.4,0.9,7.4-2.7c0.6-1,1.9-2.2,3-2.3c6.5-0.2,13,0,19.5,0
		c6.4,0.1,12.9,0.8,19.3,0.1c4.7-0.5,9-1.2,13.4,1.2c0.9,0.5,3.1,0.1,3.9-0.6c2.7-2.8,5.8-2.7,9.2-2.1c2.5,0.5,5.6,1.4,7.5,0.4
		c2.7-1.4,4.4-0.7,6.8,0.2c3.4,1.3,6.8,2.6,10.6-0.1c3.3-2.3,7.7-2.6,11.4-0.7c2.5,1.3,4.5,3.8,6.4,6.1c1.4,1.7,2.5,1.4,3.3-0.1
		c1.8-3.9,4.2-6.9,9-6.5c3.9,0.3,7.8,0.7,11.6,1.1c0.4,0,0.8,0.7,1,1.1c2.7,5.1,6.1,6.3,11.5,4.7c3.6-1.1,7.5-1.2,11.2-2.1
		c3.6-0.9,7.2-0.2,10.7,0c1.1,0.1,2.7,0.2,3.4-0.5c5-4.5,11.6-3.1,17.4-4.9c8.3-2.6,17.4,0.8,25.9-1.9c0.6-0.2,1.3,0.1,1.9,0.2
		c5,0.4,10,1.2,15,0.9c4.4-0.3,7.7,1.8,11.4,3.1c0.7,0.3,1.6,1.1,1.8,1.9c0.9,2.9,2.6,4.1,5.7,3.6c2.6-0.4,6.2,0.4,7.5-1.1
		c2.3-2.5,5-2.7,7.7-3.7c1.7-0.6,3.4-1.5,4.7-2.7c3-2.9,8.2-2.8,9.1,0.7c0.6,2.4,1,3.9,3.8,3.3c1.9-0.4,4.3-0.3,5.7-1.4
		c4.7-3.6,10.8-3.3,15,0.7c1,1,3,1.4,4.5,1.3c2.9-0.2,5.5-3,8.7-0.3c3.6,2.9,6.5,0.7,9-2c0.5-0.5,0.8-1.5,1.4-1.9
		c2.2-1.1,4.4-2.3,6.8-2.9c0.7-0.2,2.4,1.5,2.8,2.6c2.2,5.9,11.6,8.7,16.7,5c5.7-4.1,10.9-8.7,18.9-8.5c4.4,0.1,16,4.8,17.4,9.5
		c0.8,2.8,2.5,2.9,4.8,1.9c2.3-1,4.7-2.3,7.1-2.8c2.6-0.6,5-1.8,8-0.4c4.9,2.3,9.2,0.6,13.7-2.2c2.9-1.9,7-2.9,10.5-0.4
		c2.8,2.1,5.5,1.5,8.3,0.1c0.7-0.4,1.7-0.6,2.5-0.5c7.5,1.7,14.9,1.5,22.4-0.1c3.8-0.8,7.8-0.1,11.7-0.2c4.7-0.1,9.5-0.1,14.2-0.4
		c3.3-0.2,6.6-0.8,9.8-1.2c2.1-0.3,3.1,0.7,3.4,2.7c0.5,3.2,1.1,6.4,1.6,9.6c9.7,0.3,9.7,0.3,8.9,5.8c-3.1,3-5.7,5.1-7.7,7.5
		c-1.6,1.9-0.2,4.5,2.4,4.7c1.8,0.2,3.6,0,5.4,0c4.7,0,6-1.3,6.8-6c0.4-2.2,1.6-4.2,2.6-6.3c1.2-2.6,3.2-5.1,3.4-7.7
		c0.3-3.5,2.2-4.6,4.8-5.6c2.4-0.9,4.9-1.5,7.1-2.8c3.3-2,14.6,0.4,16.3,3.8c0.2,0.5,0.2,1,0.4,1.5c1.2,5.4,2.4,10.8,3.7,16.2
		c0.8,3.3,1.4,6.6,2.8,9.7c0.8,1.7,2.8,2.8,4.3,4.2c1-1.3,2-2.6,3-3.9c2-2.7,3.9-5.5,5.8-8.2c1.9-2.6,4.4-5,3.4-8.8
		c-1.8-6.8,2.1-11.1,9-10.5c2.5,0.2,5.1-0.5,7.6-1.2c7.3-2,9-7.3,11-14.3c2-6.9,1.3-13.4,1.4-20c0-1.2-1.3-2.4-1.4-3.6
		c-0.2-4.1-0.1-8.3-0.1-13.1c-1.6,0.6-2.3,1-3.1,1.2c-1,0.2-2.1,0.2-3.2,0.3c-0.1-1-0.2-2-0.2-3c-0.1-3.6,0.9-7.7-0.5-10.6
		c-2-4-1.4-7.7-1.3-11.6c0.1-4.2-0.1-8.4-0.2-12.7c-0.1-2.5-0.3-4.8,1.9-7.1c2.3-2.5,4.1-5.9,5.2-9.2c1.2-3.7,1.2-7.8,2.1-11.7
		c1-4.5,0.3-5.3-3.8-7.4c-3-1.5-6.8-3.2-7.1-7c-0.5-6.7-1.5-13.7-0.1-20.1c2.3-10.7,2-21.5,2.6-32.2c0.1-1.1-0.2-2.4-0.8-3.3
		c-2.5-3.7-3.6-7.6-2.1-12c0.2-0.7-0.3-1.6-0.6-2.4c-1.1-3,0.4-10.2,2.6-12c2.9-2.3,2.9-6.5,0.1-8.9c-0.8-0.7-1.5-1.9-1.5-2.9
		c-0.1-3.6,0-7.2,0.4-10.8c0.2-1.7,0.7-4,1.8-4.8c2-1.5,3.7-3,2.4-5.3c-0.7-1.2-2.9-1.6-4.8-2.5c0-5.3-0.7-11.3,0.2-17.1
		c0.7-4.5,0.6-9.6,4.7-13.4c1.4-1.3,0.8-5,0.7-7.5c-0.1-1.9-1-3.7-1.7-5.5c-0.6-1.5-1.3-3-1.9-4.5c-0.9-2.1-2.6-4.1-2.7-6.2
		c-0.1-3,0.9-6.1,1.5-9.1c0.1-0.6,0.4-1.4,0.8-1.6c3.2-1.8,2.8-3.4,0.1-5.5c-2.8-2.1-4.4-7.8-2.7-9.7c3-3.3,1.8-5.7-0.8-8.3
		c-0.8-0.8-1.3-2.4-1-3.3c0.3-0.9,1.8-1.4,2.8-2.1c1.2-0.7,2.8-1,3.5-2c3.2-4.1,1.1-9,1.6-13.6c0.5-4.8-1.2-8.2-5.8-9.8
		c-2.3-0.8-2.6-2.4-1.7-4.3c0.7-1.5,1.6-2.9,2.6-4.2c1.6-2.2,2.8-4.2,0.5-6.8c-1.1-1.2-1.4-3.1-2.2-5c1.5-0.4,2.4-0.5,3.2-0.9
		c2.6-1.3,7.8-14.4,7.2-17.3c-0.9-4-4.4-3.5-7-4.2c-3.9-1.1-4.4-1.7-2.2-5c1.6-2.4,2-4.7,1.8-7.6c-0.5-5.5,0-11.1-0.4-16.7
		c-0.3-3.6,1-7.8-4-9.9c-2.4-1-2.9-3.6-1.4-5.9c1.1-1.6,2.3-3.2,3.8-4.3c2.1-1.5,2.1-2.5,0.8-4.7c-3-4.8-4.3-10.4-1.6-15.6
		c1.5-3,4.8-5,7.2-7.6c0.6-0.7,1.4-2.1,1.1-2.7c-2.9-6.3-3.5-12.8-3.4-19.6c0-1.6-0.8-3.8-2-4.8c-3.7-3.1-3.9-3.9-0.5-7.1
		c3.3-3.2,3.3-4.7,1.1-8.7c-0.9-1.8-1-4.1-1.3-6.1c-0.7-5.3,4.9-9.4,3.1-15c-0.8-2.6-1.2-5.4-1.7-8.1c-1.1-6.1-3.1-12.2,0.5-18.2
		c0.3-0.5,0.1-1.8-0.3-2.2c-3.5-2.8-1.2-6.2-1.1-9.4c0-3.7,1-7.7-0.1-11c-0.9-2.5-0.6-4.3-0.2-6.6c0.4-2.6,1.3-5.5-1.6-7.8
		c-3.8-3-4.1-6-1.2-9.7c0.8-1,2.4-1.2,3.3-2.1c3.4-3.3,4-7.5,3.4-12c-0.3-2.4-0.9-5.1-0.2-7.3c2.3-7.1-0.7-13.5-2.3-20
		c-0.7-2.8-3.2-6.4-2.2-8.3c2.2-4.5,2-8.7,1.1-13.1c-1.3-6.5,3.5-11.8,3.4-17.9c0-1.4-0.1-3.1-0.9-4.2c-2.3-3.4-5-6.5-7.3-9.8
		c-4.3-6.1-3.6-9.6,1.8-14.7c1-0.9,1.5-3.4,1-4.7C974.5,215.2,972.8,213.2,971.6,211.4z M914.7,90.3c0.9,5.3,4.2,8.1,8.6,10.6
		c2.8-2.9,5.5-5.8,8.2-8.6c-0.2-0.4-0.4-0.8-0.5-1.2C925.8,90.8,920.7,90.6,914.7,90.3z M918.4,80.4c0.3,0.8,0.6,1.5,0.9,2.3
		c1.9-0.8,3.9-1.6,5.8-2.4c-0.4-0.6-0.9-1.8-1-1.8C922.1,79,920.3,79.8,918.4,80.4z"/>
	<path d="M462,65.8c2.5,2.6,4.4,4.3,5.7,6.3c0.3,0.5-2,3.6-2.9,3.5c-3.3-0.5-3.8-3.6-4.3-6.3C460.5,68.6,461.2,67.7,462,65.8z"/>
	<path class="st1" d="M914.7,90.3c5.9,0.3,11.1,0.5,16.3,0.8c0.2,0.4,0.4,0.8,0.5,1.2c-2.7,2.9-5.5,5.7-8.2,8.6
		C918.9,98.4,915.6,95.6,914.7,90.3z"/>
	<path class="st1" d="M918.4,80.4c1.9-0.7,3.7-1.4,5.6-1.9c0.2,0,0.7,1.1,1,1.8c-1.9,0.8-3.9,1.6-5.8,2.4
		C919,81.9,918.7,81.2,918.4,80.4z"/>
</g>
<g>
	<path class="st0" d="M448.2,586.8c-0.3-0.3-0.5-0.9-0.5-1.8c0,0,0,0,0,0C447.7,585.9,447.9,586.5,448.2,586.8z"/>
	<path class="st0" d="M447.7,585c-1.5,1.4-2.9,2.7-4.4,4.1C444.8,587.7,446.2,586.4,447.7,585C447.7,585,447.7,585,447.7,585z"/>
	<path class="st0" d="M447.7,584.8c1.9-0.8,3.8-1.5,6.5-2.6C451.5,583.3,449.6,584,447.7,584.8C447.7,584.8,447.7,584.8,447.7,584.8
		z"/>
	<path class="st0" d="M452.3,586.9c0.3,0,0.6,0.1,0.9,0.2C452.9,586.9,452.6,586.9,452.3,586.9z"/>
	<path class="st0" d="M536.8,396.2C536.8,396.2,536.8,396.2,536.8,396.2C536.8,396.2,536.8,396.2,536.8,396.2z"/>
	<path class="st0" d="M534.6,403.6c0,0-0.1,0.1-0.1,0.1c0,0,0,0,0,0c0.5-2.4,0.4-5.1,1.9-7c-1.5,2-1.4,4.6-1.9,7L534.6,403.6z"/>
	<path class="st0" d="M539.7,335.7L539.7,335.7c-0.3,0.2-0.5,0.3-0.8,0.5C539.2,336,539.4,335.9,539.7,335.7z"/>
	<path class="st0" d="M447.3,583.5c0.1,0.4,0.3,0.9,0.4,1.3c0,0,0,0,0,0C447.6,584.4,447.4,583.9,447.3,583.5z"/>
	<path class="st0" d="M381.4,284C381.4,284,381.4,284,381.4,284C381.4,283.9,381.4,283.9,381.4,284z"/>
	<path class="st0" d="M575.1,843.6c-0.9-0.8-2-1.5-2.7-2.4c-10.3-14.8-25.7-24.4-37.9-37.2c-6.2-6.4-11-14-16.5-21.1
		c-0.6-0.7-0.8-1.7-1.5-2.3c-11.9-11.8-14.8-27.4-18.6-42.7c-1-4-2.6-7.8-3.8-11.7c-2.3-7.6-0.5-13.2,5.3-16.8
		c5.5-3.4,12.1-2.5,17.4,2.9c2.3,2.3,4,5.3,5.7,8.2c2.4,4,4.1,8.5,6.8,12.3c1.6,2.2,4.6,3.4,7.1,4.7c1.8,0.9,4.2,0.9,5.9,1.9
		c5.4,3.4,9.4,3.8,14.5,0.2c5.9-4.2,11.7-8.7,17.4-13.2c5.6-4.4,6.5-10.9,7.6-17.5c0.7-4.5,2.6-8.9,3.8-13.3c1-3.8,2.5-7.6,2.6-11.4
		c0.3-12.3,0.1-24.6-0.1-37c0-2.1-0.5-4.3-1.2-6.2c-2.6-7.1-3.9-14.1-1.7-21.8c2-7-6.6-19-13.7-20.9c-3.9-1-10.3,3.5-10.4,7.6
		c-0.4,17,0,34.1-1.2,51c-0.7,10.6-0.5,21.6-4.7,31.7c-1,2.5-2.5,4.8-3.7,7.1c0.5,0.9,1.1,1.9,1.7,2.8c-1.2,0.2-2.4,0.4-3.6,0.5
		c-2.3,0.2-4.5,0.2-6.8,0.5c-7.3,1.2-11-2.2-10.6-9.5c0.2-3.3-0.6-6.6-0.7-9.9c-0.6-12.2,2.4-23.8,5.7-35.3c0.4-1.5,1-2.9,1.2-4.4
		c1.1-7.8,2.3-15.6,2.9-23.4c0.3-4.3-0.5-8.6-0.9-12.9c-0.2-1.8-0.5-3.6-1-5.4c-2.6-11.3,4.1-18.6,10.9-26c1.9-2.1,3.5-4.5,4.7-7.1
		c5-10.4,6.6-21.2,6.3-32.9c-0.4-14.8-7.4-26.2-14.9-37.8c-0.6-0.9-1.6-1.6-1.9-2.5c-2.5-8-8.8-10.2-16.1-10.9
		c-6.8-0.7-13.6-1.5-20.4-1.9c-6.8-0.3-13.7,0-20.5-0.1c-6.9-0.1-10.3-3.1-10.3-8.9c0-7.2,3.3-10.2,10.6-10.8
		c11.8-0.9,23.7-1.4,35.2-3.9c7-1.5,13.3-6.3,19.7-9.9c0.9-0.5,1.1-2.3,1.5-3.6c2-6.9,3.6-14,6.1-20.8c2.5-6.8,7.3-13,8.5-19.9
		c1.5-9.3,7.2-17,7.9-26.8c0.5-8-0.1-15.6-0.9-23.4c-0.2-2.7-0.9-5.5-0.7-8.2c0.8-13-1.5-25.6-5.8-37.6c-3.4-9.5-7.2-19.1-15.1-26.2
		c-2.5-2.2-4.4-5-6.7-7.5c-4.6-5-9.8-8.6-16.3-11.2c-10.9-4.3-21.5-9.1-31.8-14.6c-6.7-3.5-9.2-10.3-9-17.8
		c0.2-8.2-4.6-13.1-11.3-16.2c-4.5-2-9.5-3-14.4-3.9c-1.9-0.3-4.1,0.8-6.2,1.3c0,0.4,0,0.8,0,1.2c1.1,0.5,2.3,1.1,3.4,1.6
		c-0.5,2.3-0.5,4.7-1.5,6.7c-0.5,0.9-2.7,1-4.5,1.6c-0.3,1.6-0.8,3.8-1.2,5.9c8.2,2.6-0.6,7.9,2.1,11.6c-1.4-0.3-2.8-0.6-4.4-0.9
		c-0.4,2.5-0.7,4.9-1.1,7.5c1.3,0.5,2.5,1,4.7,1.9c-1.7,1.1-2.8,1.7-3.7,2.4c-1.1,0.9-2,2-3,3c-0.9,0.8-1.6,2-2.7,2.4
		c-14.8,5.5-29.7,10.9-44.5,16.4c-0.4,0.1-0.7,0.5-1.3,0.9c2.9,4.3-1.7,4.3-3.5,6.5c-0.6-1.1-1.1-1.9-1.6-2.9
		c-1.5,2.7-2.9,5.2-4.7,8.3c0.1,0.1,0.3,0.8,0,1.1c-3.4,5.2-7.5,9.9-10.2,15.4c-2.8,5.5-4.4,11.6-6.4,17.6c-1,3-1.6,6.2-2.6,9.9
		c2.1,2.2,0.1,5.1-1,8.1c-1.2,3.3-2.2,6.6-3,9.9c-2.3,5.6-4.5,11.2-6.8,16.8c0.2,0.3,0.5,0.7,0.7,1c2.6-1.3,5.1-2.6,7.7-3.9
		c0.5,0.3,0.9,0.6,1.4,0.9c-1,2.5-1.5,5.4-3.1,7.4c-0.5,0.7-3.8-0.8-5.8-1.3c-1.6,3.7-1.5,4.1,2.3,5.3c-3.3,8.6-3.2,17,2,24.7
		c3.6,5.4,6.8,10.8,6.6,17.6c0,1.1,0.5,2.4,1.1,3.4c4.7,8.3,8.9,16.9,14.3,24.6c3,4.2,7.8,7.5,12.4,10.2c9.1,5.5,19.7,4.3,29.8,5.3
		c4.2,0.4,8.5,0.7,12.7,1c6.1,0.5,9.2,4.9,7.8,10.8c-0.2,1-0.9,2.3-0.5,3c2.6,5.7-0.8,9.5-3.9,13.5c2-0.2,2.1-0.2,5.5-9.1
		c1.4-3.6,2.2-7.4,3.2-11.1c0.4,0,0.8-0.1,1.2-0.1c0.2,1.5,0.1,3.2,0.8,4.4c1,1.7-2.1,5.3,2.4,5.4c0.1,0,0.7,3.3,0,4.4
		c-3.1,5-4.4,10.1-3.6,16c0.2,1.4-1.6,3-2.9,5.2c-0.6-5.2-1.1-9.2-1.5-11.8c-3.2,0-5.2-0.2-7.2,0.1c-1.5,0.2-3.1,0.8-4.5,1.5
		c-1.6,0.9-3,2.1-4.8,3.4c1.1,0.9,2,1.7,3.4,2.9c-1.4,1-2.6,1.9-4.1,3.1c-0.6-1.6-1-2.5-1.9-5.1c-7.5,8.1-14.2,15.3-20.9,22.7
		c-0.7,0.8-1.1,1.8-1.4,2.8c-1.6,4.3-2.3,8.8-6.4,12c-5.7,4.5-5.7,12.2-9.1,18c0,0,0,0,0,0c3-1.8,5.9-3.6,9.1-5.5
		c-0.6,5.2-1.2,5.5-9.1,5.5c0,0,0,0,0,0c0,0,0,0,0,0c-4.1,7.5-7.1,15.2-9.4,23.6c-2.5,9.1-7.4,17.5-10.9,26.4
		c-1.8,4.6-2.8,9.5-4.1,14.3c-5.2,18-7.2,36.6-9.7,55c-1.7,12.3-2.7,24.6-4.2,36.9c-0.2,1.9-1.5,3.7-1.8,5.6
		c-0.8,4.8-1.5,9.7-2.1,14.5c-0.3,2.7,0,5.5-0.6,8.1c-2.4,11.2-4,22.3-4.1,33.8c0,10-1.5,20-3.1,29.8c-1.9,11.3-4.9,22.5-6.9,33.8
		c-1.5,8.1,0.6,15.7,4.9,22.6c0.6,0.9,1.8,1.9,2.7,2c15.4,0.2,30.8-5,31.5-24.8c0.2-6.5,2.2-12.9,2.7-19.4
		c0.9-12.8,1.3-25.7,2.1-38.5c1.2-19.1,2.4-38.2,3.8-57.3c0.2-2.4,0.8-4.8,1.5-7.1c2.4-8.8,3.5-17.7,4.4-26.9c1-11.1,4.4-22,6.6-33
		c1.7-8.5,2.9-17,4.6-25.5c1-5.2,2.6-10.3,3.9-15.4c0.5-1.9,1.4-3.7,1.7-5.7c1.1-9.5,4.7-17.7,11.2-24.9c2.6-2.9,3.7-7.2,5.5-10.9
		c2.4-5.1,5.2-10,7-15.2c3-9,9.1-15.4,16-21.1c9.8-8,20.4-15,33.1-17.2c6.1-1.1,12.5-1.3,18.6-0.6c11.1,1.4,22.4,2.5,32.4,8.4
		c7.9,4.7,9,9.7,3.9,17.4c-0.2,0.4-0.5,0.8-0.6,1.2c-3,8.2-5.2,9-14.1,9.2c-10.4,0.3-20.8,1.7-31.2,2.5c-2.9,0.2-5.7,0.3-8.6,0.6
		c-4.9,0.4-10.3-0.1-14.7,1.7c-7.8,3.2-12.3,10.1-13.3,18.4c-1.2,9.9-1.5,19.9-1.9,29.9c-0.2,5,0.6,9.8,3.1,14.4
		c1.8,3.3,2.8,7.5,2.9,11.3c0.4,10,0.6,20.1,0.1,30.1c-0.4,7.6,0.9,14.3,7.3,20.5c-2.8,1.2-4.9,2-7.7,3.2
		c-0.6,9.6,0.9,20.1,3.2,30.4c1.9,8.8,4.5,17.3,6.5,26.1c0.9,3.8,2,6.6,6.6,6.3c0.5,0,1,0.5,2.4,1.2c-6.3,3.2-4.6,7.1-2.3,11.8
		c5.7,12,10.6,24.4,16.4,36.3c2.6,5.4,6,10.8,10.1,15.1c7.5,8,13.2,17.3,20.7,25.2c9.7,10.2,19.9,20.1,29.9,30.1
		c2.5,2.5,4.8,5.1,7.4,7.4c2,1.7,4.2,3.3,6.6,4.6c2.6,1.5,5.4,2.7,8.1,4c6.8,3.3,13.8,4.6,20.8,0.8c11.7-6.2,11.8-16.8,4.4-25.9
		C584.6,851.7,579.6,847.9,575.1,843.6z M565.5,602.6c0.5,0.2,1,0.3,1.5,0.5c-0.8,8.7-0.8,8.7-3.7,9
		C564,608.7,564.8,605.7,565.5,602.6z M564.5,671.7c0.5,0.2,0.9,0.5,1.4,0.7c0.5,4.3-0.2,5.5-4.6,6
		C562.5,675.9,563.5,673.8,564.5,671.7z M564.1,681.9c-1.4,3.8-2.6,7.2-3.9,10.6c-0.5-0.2-1.1-0.4-1.6-0.6
		C557.6,687.8,560.1,682.4,564.1,681.9z M558.1,718.1c-1.8,2.7-3.3,4.9-5.1,7.6C550.8,720.2,552.2,718.3,558.1,718.1z M336.6,805.6
		c0.9-2.2,1.8-4.4,2.7-6.6c0.5,0.2,1.1,0.4,1.6,0.7C341.5,802.5,340.5,804.8,336.6,805.6z M364.4,639.1c-0.7,1-1.8,1.8-3,2.8
		c-1-1.4-1.7-2.4-3.1-4.4c2.3-0.3,3.9-0.6,5.4-0.5C364,637,364.7,638.7,364.4,639.1z M364.8,631c-2.4-5.8,0-11.2,3.7-10.6
		C367.3,623.9,366.1,627.5,364.8,631z M373.3,596.2c-0.4-0.3-0.8-0.6-1.3-0.9c2.3-4.4,4.7-8.7,7-13.1c0.4,0.2,0.8,0.5,1.2,0.7
		C379.4,588.2,377.3,592.8,373.3,596.2z M380.7,579.9c-0.4-0.2-0.8-0.4-1.2-0.7c0.9-4.8,2.1-9.5,6.3-12.7c0.6,0.3,1.2,0.7,1.7,1
		C385.3,571.6,383,575.7,380.7,579.9z M396.9,541c-0.5-0.2-1-0.5-1.5-0.7c0.2-5.6,3.7-9.5,7.6-13.2C401,531.7,398.9,536.3,396.9,541
		z M407.8,519.4c-0.5-0.5-1-0.9-1.6-1.4c3.6-4.1,7.2-8.3,10.7-12.4c0.6,0.5,1.2,1.1,1.8,1.6C415.2,511.3,411.5,515.3,407.8,519.4z
		 M386.8,336c-0.3-3.4-0.4-7.1,0.3-10.4c4.9-22.9,24-38.1,47.5-38.1c7.2,0,10,2.8,10.5,10.1c0.7,11.8,1.5,23.6,2.4,35.4
		c0.4,5.6-2,9.5-7.4,11c-2.6,0.7-5.4,1.3-8.1,1.2c-7.9-0.2-15.7-0.6-23.6-1c0,0.1,0,0.1,0,0.2c-2,0-4,0-5.9,0c-2,0-4,0.1-5.9,0
		C391.2,344.2,387.2,340.9,386.8,336z M443.6,417.4c-0.1,5.2-3.2,9.4-8,9.4c-11.5,0-22.6-1.9-31.6-10.2
		c-8.2-7.5-11.7-17.1-13.4-27.6c-1.3-7.6,2.4-11.9,10.2-12c11.8-0.1,23.6-0.1,35.4,0c5.3,0,8.9,4,8.4,9.1c-0.5,6.2-1,12.3-1.5,18.5
		c0.2,0,0.3,0,0.5,0C443.6,408.9,443.7,413.1,443.6,417.4z M444.6,430.9c0.9-2.3,1.5-4.1,2.4-5.7c0.4-0.7,1.6-1.2,2.5-1.5
		c0.2-0.1,1.2,1.2,1.1,1.5C449.2,427.5,449,431.1,444.6,430.9z M448.4,399.3c-0.2-2.4-0.3-4.7-0.5-7.1c0.8-0.2,1.7-0.3,2.5-0.5
		c0.6,2.1,1.3,4.2,1.7,6.4C452.1,398.4,449.6,398.9,448.4,399.3z M482.4,442c0.4-3-1.5-7,3.3-8.4C488.2,438.1,484.7,439.8,482.4,442
		z M481.1,302.3c0.1-8,2.8-11.2,10.6-10.3c6.4,0.8,12.5,3.2,18.8,4.9c12.3,3.3,17.8,12.4,20.5,23.9c0.9,3.8,1.9,7.7,3.2,11.4
		c0.3,0.9,1.8,1.5,2.8,2.1c0.4,0.3,0.9,0.5,1.4,0.7c0.5,0.2,0.9,0.5,1.4,0.7l0,0h0c-0.3,0.2-0.5,0.3-0.8,0.5c-0.8,0.5-1.5,1-2.3,1.3
		c-1.6,0.6-3.2,1-4.8,1.6c-3.2,1.2-6.2,3.2-9.4,3.7c-4.5,0.6-9.1,0.2-13.7,0.2c0-0.2,0-0.3,0-0.5c-4.7,0-9.4,0.1-14.1,0
		c-9.3-0.4-14-5.1-14-14.3C480.5,319.5,481,310.9,481.1,302.3z M472.3,344.9c1.7,5.3-2.3,6.2-5.4,8.2c-1.3-5.1-2.7-9.8-3.7-14.5
		c-0.2-1.2,0.4-2.7,1-3.8c1.2-2.3,2.7-4.4,4.1-6.6c1.7,0.7,3.3,1.3,4.6,1.8c-0.1,2.4-0.3,4.1-0.3,5.7c0,1.6,0.4,3.2,0.3,4.8
		C472.9,342.1,471.9,343.7,472.3,344.9z M476.2,397.7c-0.1-4.2,0.2-8.5-0.8-12.5c-2-7.9,0.8-12.5,9.2-12.5
		c12.3-0.1,24.6,0.1,36.9,0.5c8.3,0.3,12.5,5.1,12.5,13.5c0,2.3,0.2,4.6,0.3,7.6c2.1-1.4,3.3-2.2,5.4-3.6c-0.5,2.1-0.4,3.9-1,4.2
		c-0.2,0.1-0.5,0.2-0.7,0.4c-0.4,0.3-0.8,0.5-1.1,0.9c0,0,0,0-0.1,0.1c-0.2,0.2-0.3,0.3-0.5,0.5c-1.5,2-1.4,4.6-1.9,7
		c1.4-1.8,2.7-3.6,4.1-5.4c0.5,0.2,0.9,0.5,1.4,0.7c-1.2,4-2.1,8.1-3.8,11.8c-4.5,9.7-4.6,9.6-6.4,9.6c1.6-5.6,3.2-11.2,4.9-16.9
		c-1.2,2.4-2.3,4.9-3.5,7.3c-5.8,11.6-13.3,20.4-28.1,18.3c-2.4-0.3-4.9-0.3-7.3,0.1c-2.2,0.4-4.2,1.4-6.3,2.2
		c-1.3,0.4-2.6,0.8-5.1,1.6c1.4-2.2,2-3.1,2.6-4c-9.5-4.3-10.7-6.2-10.7-16.8C476.1,407.4,476.3,402.5,476.2,397.7z M513.4,490.2
		c-0.6-0.2-1.2-0.4-1.7-0.6c-0.3-2.2-1.5-4.8,3.4-5.3C514.4,486.6,513.9,488.4,513.4,490.2z M451.1,579.4c0.9,0.8,1.6,1.4,3.2,2.8
		c-2.7,1.1-4.6,1.9-6.5,2.6c0,0,0,0.1,0,0.1c0,0-0.1,0.1-0.1,0.1c0,0.9,0.2,1.5,0.5,1.8c0.8,0.8,2.5,0,4.1,0.1
		c0.3,0,0.6,0.1,0.9,0.2c-2.4,4.6-5.8,3.4-9.9,2c1.5-1.4,2.9-2.7,4.4-4.1c0-0.1,0-0.1,0-0.2c0,0,0.1,0.1,0.1,0.1l-0.1-0.1
		c0,0,0,0,0.1,0c-0.1-0.4-0.3-0.9-0.4-1.3c-0.5-1.5-1-3-1.5-4.7c3.3-1.1,3.9-3.6,3.7-7.2c-0.4-4.7,3.9-10.6,7.6-11.9
		C455,566.4,453,573,451.1,579.4z M533.1,719.9c0.3-1.4,0.1-2.9,0.1-4.4c0.6-0.1,1.2-0.3,1.9-0.4c0.5,2,1.8,4.1,1.3,5.8
		c-0.4,1.6-2.7,2.6-4.2,3.9c-0.3-0.3-0.6-0.7-0.9-1C531.9,722.5,532.8,721.2,533.1,719.9z M539.6,499.5c-1.9,2.1-3.6,3.9-6.1,6.6
		C532.9,500.2,535,498.2,539.6,499.5z M524.1,551.9c1.7-2.8,3.2-5.8,5.1-8.4c0.6-0.8,2.6-1.4,3.5-1c0.8,0.3,1.5,2.8,1.1,3.4
		c-3.2,3.7-6.7,7.2-10.2,10.7c-0.5,0.5-1.7,0.2-2.9,0.4C522.2,554.8,523.2,553.4,524.1,551.9z M516,626.9c-0.7,1.6-1.2,2.9-2.2,5.5
		c3.1-1,5.2-1.7,7.3-2.3c-0.2,3.1-0.3,6-0.6,8.9c-0.1,0.6-0.7,1.6-1.1,1.7c-0.8,0.1-1.9-0.2-2.4-0.7c-0.7-0.8-0.9-1.9-1.4-2.9
		c-0.3,0.1-0.5,0.1-0.8,0.2c-0.3,6.5-0.6,13.1-0.9,19.6c-3.2,2.3-6.7,4.7-9.9,6.9c-0.4-2.5,0-5.1-1.1-6.8c-3.1-4.9-2.6-6.8,3-9.2
		c1.4-0.6,3-1.8,3.3-3.1c0.2-0.8-1.6-2.2-2.8-3.8C510.9,637.5,506.1,627.6,516,626.9z M481.9,635.6c-1.2-4.1-1.9-8.5-2.2-12.9
		c-0.4-5.1,0.2-10.4-0.4-15.4c-0.8-6.7,0.8-12.5,4.5-18.1c4.3-6.4,11.5-7.2,17-1.7c7.4,7.4,9.1,16.8,9.3,27.3
		c-0.3,3.1-0.3,6.8-1,10.3c-0.7,3.5-1.8,7-3,10.4c-2.2,6.1-7.7,10.1-13.3,10C487.5,645.5,484,642.6,481.9,635.6z M490.3,677.3
		c1.1-1.6,2.4-3.1,3.6-4.6c0.6,0.6,1.2,1.1,1.8,1.7c-1.4,1.5-2.8,3-4.2,4.5C491.1,678.3,490.2,677.4,490.3,677.3z"/>
	<path class="st0" d="M327.1,601.8c-0.4-13.2-2.1-26.4-2.4-39.6c-0.2-11.2,4-21.3,10.4-30.5c0.5-0.7,1.2-1.4,1.5-2.3
		c3.8-10.1,12.5-13.4,21.9-15.6c3.2-0.7,7.5-0.2,7.9-5c0.6-6.8-2.1-10.6-7.7-11.9c-5.9-1.4-11.9-2.6-17.6-4.8
		c-5.3-2-9.7-0.6-13.7,2.1c-5.5,3.7-11.1,7.6-15.5,12.5c-3.3,3.6-4.7,8.8-6.9,13.3c0.4,0.3,0.9,0.5,1.3,0.8
		c5.4-5.8,7.5-14.6,16.2-18.7c-7.4,12.3-14.2,23.7-21,35c3.2,3,1.8,5-1.3,7.1c-0.8-1.2-1.4-2.3-2.2-3.5c-0.4,0.5-0.8,0.7-0.9,1.1
		c-0.8,3.8-1.8,7.6-2.4,11.4c-1.1,6.4-2.7,12.9-2.7,19.3c0,13.5,1.4,27,1.4,40.5c0,15.6,0.6,31.3-4.6,46.4c-1.1,3.1-1.3,6.5-1.8,9.8
		c-0.7,4.4-2.1,8.4-6.8,9.9c-5,1.5-7.9-1.4-10.5-5.2c-2-2.9-4.3-5.5-6.6-8.1c-6.3-7.1-10-15.7-11.9-24.8c-1.7-8.4-3.3-17-3.3-25.5
		c-0.1-11.8,1.8-23.4,7.2-34.4c3.1-6.2,3.3-13.8,5.5-20.5c1.7-5.2,4.6-10.1,6.9-15.2c2.9-6.3,5.7-12.7,8.6-19c1.3-2.9,2.4-5.9,4-8.6
		c4-6.8,8.3-13.4,12.4-20.1c0.4-0.7,0.8-1.6,0.7-2.4c-0.2-4-0.7-8-0.9-12c-0.6-10.3-0.9-20.6-1.8-30.9c-0.2-2.4-1.8-4.8-2.8-7.1
		c-3.7-8.5,0.2-15.2,9.5-15.3c4.1-0.1,7.5-1.2,11-3.1c9.8-5.3,20.4-3.9,30.8-2.9c8.4,0.8,12.9-4.5,10.8-12.7c-1-4.1-4.1-4.4-7.2-4.8
		c-10.1-1.5-20.3-3.1-30.5-4.1c-5.2-0.5-10.6,0-15.9,0c-14.7,0.2-29.4,0.7-44,0.3c-5.1-0.1-10.2-3.3-15.4-3.3
		c-11.4-0.1-22.8,0.7-34.1,1.7c-1.5,0.1-3,3.3-4.1,5.3c-1.2,2-1.9,4.2-3.3,7.4c-1-2.4-1.5-3.5-1.9-4.5c-2.1,4.9-2.1,9.8-0.6,14.4
		c3.6,10.9,3.7,10.7,15.1,10.9c8.7,0.1,17.3,0,25.9,0.9c8.6,0.9,14.2,6.1,17.1,14.4c6.5,18.8,7.2,24.7,4.9,44.6
		c1.7,0.9,4.5,1.7,4.5,2.6c0,1.7-1.2,3.6-2.5,4.9c-0.5,0.5-2.6-0.8-5.2-1.7c-2.1,4.4-4.6,9.5-7,14.6c-2.5,5.3-5.1,10.6-7.4,16
		c-1.5,3.3-4.2,6.7-2,9.3c-2.2,4.5-4,8.2-5.9,11.9c-1.6,3.1-3.4,6-5,9.1c-1.2,2.3-2.5,4.6-3.1,7.1c-4.1,17.1-9.5,33.9-9.9,51.7
		c-0.1,5.8-1.8,11.6-1.1,17.2c1.6,13.7,3.1,27.4,10.5,40c5.8,9.9,12.7,18.4,21.3,25.7c4.7,4,8.6,9,13.1,13.4
		c1.5,1.4,3.4,2.9,5.3,3.2c8.8,1.6,17.6,3.2,26.5,4.1c5.9,0.6,10.8-1.7,15.5-5.8c11.8-10.2,14.3-24.6,19.1-38.1
		c3.6-10.2,5-20.9,4.7-31.8C327.1,632.5,327.6,617.2,327.1,601.8z M256.8,444.9c-0.3-0.5-0.6-1.1-0.9-1.6c2.8-1.4,5.7-2.7,8.5-4.1
		c0.3,0.5,0.6,1.1,0.8,1.6C262.4,442.2,259.6,443.5,256.8,444.9z M256.7,503.2c1.2,5.3-0.4,9.3-4.3,11.5
		C249.3,510.1,250.3,507.4,256.7,503.2z M254.5,517.4c-1.6,2.2-2.7,4.1-4.3,5.7c-0.5,0.5-2.2,0.5-3,0c-0.9-0.5-1.8-1.7-1.9-2.7
		C245.3,519.1,252.3,516.6,254.5,517.4z M216.5,602.3c0-0.5,0.6-1.2,1.2-1.5c1.6-0.8,3.3-1.3,5-2c1,3.6-0.8,5.7-4.8,4.6
		C217.3,603.4,216.5,602.7,216.5,602.3z M221.7,607.5c0.2-0.2,1.5,0.7,2.3,1.1c-1.2,1.4-2.5,2.9-3.7,4.3c-0.6-0.5-1.3-1-1.9-1.5
		C219.5,610.1,220.5,608.7,221.7,607.5z M221.7,645.9c-0.5,0.2-1.5-1.1-3.1-2.3c1.8-1.3,2.9-2.5,4-2.6c0.7-0.1,1.5,1.5,2.3,2.4
		C223.9,644.2,222.9,645.4,221.7,645.9z M227.3,583.9c0.7,3.8-1.2,5-3.5,6.8c-2.9-6.6,0.1-15.2,6-15.6
		C228.8,578.3,226.8,581.4,227.3,583.9z M236,645.1c-0.6,0.2-2.5-1.3-2.4-1.6c0.8-2.6,1.9-5,5.4-4.6
		C240.5,642.3,239,644.2,236,645.1z M238.5,551.4c-1.8,4.3-2.9,8.8-4.7,13.1c-1.3,3.1-2.7,6.5-8.2,6.4c2-3.6,4-6.2,5.2-9.2
		c1.9-4.7,2.1-10.2,6.4-13.8c0.5-0.4,0.3-1.4,0.6-2.1c2.7-6.4,5.3-12.9,8.2-19.2c0.3-0.7,1.9-0.7,3-1c0.1,0.9,0.6,2,0.3,2.7
		C245.7,535.9,241.9,543.6,238.5,551.4z M286,689.2c-0.6,1.1-2.7,1.4-4.1,2c-0.1-0.4-0.3-0.9-0.4-1.3c3.3-6.1,6.7-12.1,10-18.2
		c0.5,0.2,1.1,0.5,1.6,0.7C292.3,678.5,288.8,683.7,286,689.2z M296.4,643c-0.2-0.5-0.4-1-0.6-1.5c1.4-0.4,2.8-0.8,4.2-1.4
		c0.9-0.4,1.7-1.2,2.5-1.7c-0.8-0.6-1.5-1.4-2.4-1.8c-1.1-0.5-2.3-0.7-3.6-1.1c0.6-1.1,0.8-2,1.2-2.1c3.6-0.7,6-3,8.1-5.8
		c0.2-0.2,2.4,0.4,2.7,1.1C311.8,637.8,306.2,644.5,296.4,643z"/>
	<path class="st0" d="M962.6,566.8c-1.5-5.2-4-10.1-6.4-15c-3.7-7.5-7.4-15-11.6-22.2c-3.9-6.5-8-12.9-12.9-18.6
		c-12.7-15.1-25.7-30-38.8-44.8c-9.1-10.2-18.6-20-27.8-30.2c-2.8-3.1-4.8-7-7.4-10.3c-2.7-3.6-5.8-6.9-8.6-10.4
		c-13.7-17-27.4-34.1-41.1-51.1c-3.4-4.2-6.6-8.5-9.8-12.9c-4.5-6.4-8.6-13.2-13.5-19.2c-2.2-2.7-6-4.4-9.4-5.6
		c-1.3-0.5-4.3,1.4-5.3,3c-1.7,2.6-2.3,5.8-3.5,8.8c-1.7,4.3-3.3,8.7-5.3,12.8c-0.6,1.2-2.4,1.8-2.6,3c-0.7,2.4-1.1,5-2.3,7.1
		c-5.5,9.7-11.2,19.3-16.9,28.9c-0.9,1.4-2.6,2.3-3.9,3.5c-0.7,0.7-1.2,1.6-1.9,2.3c-0.7,0.7-1.3,1.7-2.1,2.1
		c-2.3,1.2-3.7,2.5-2.4,5.3c0.3,0.6,0.3,1.7-0.1,2.2c-3.7,4.8-7.4,9.6-12,13.8c0.1-0.9,0.3-1.9,0.6-3.7c-1.6,2.1-2.7,3.4-3.8,4.9
		c0.8,0.7,1.4,1.4,2.1,2c-1.7,1.6-3.4,3.2-5.1,4.8c0.2,0.1,0.4,0.2,0.6,0.2c-1.8,2.8-3.5,5.6-5.4,8.3c-3,4.2-6.3,8.2-9.3,12.4
		c-9.1,12.6-18.2,25.3-27.3,38c-1.8,2.5-3.3,5.1-5,7.6c-3.4,5-7,9.8-10.1,15c-3.4,5.7-6.4,11.7-9.6,17.6c-0.7,1.3-1.7,2.4-2.6,3.6
		c-1.9,2.5-3.8,5-5.7,7.5c0.3,0.3,0.5,0.7,0.8,1c1.2-0.5,2.3-1,3.5-1.5c0.6,5.7-0.8,9.7-6.6,12.7c-3.6,1.9-5.9,6.8-7.8,10.9
		c-3.3,7.1-5.8,14.7-8.8,21.9c-0.5,1.2-2.3,2-3.4,2.9c5.6,3,9.8,1,14.2-3.4c5.7-5.6,12.5-10.2,18.1-15.9c5-5.1,9.1-11.1,13.4-16.8
		c4.3-5.8,8.7-11.7,12.6-17.9c5.7-9.1,11.2-18.3,16.4-27.7c1.8-3.2,3.9-5.4,6.9-6.6c0-0.7,0.3-1.5,1-2.2
		c10.6-10.9,15.5-25.4,23.7-37.9c0.5-0.7,1.1-1.2,1.7-1.4c0.3-1.4,1.2-2.8,2.6-4.4c4.5-5.2,9.1-10.6,12.7-16.5
		c9.7-15.9,20.6-30.7,33.3-44.3c4.4-4.7,10-5,15.1-1.1c2.3,1.7,4.4,3.8,6.3,5.9c9.4,10.2,20,19.7,27.8,31.1
		c6.2,9.1,14.1,16.4,21.1,24.7c1.7-1.3,4.8-1.1,5.8,1.6c3.3,9,9.8,15.7,16.8,22c3.1,2.8,6.4,5.4,8.9,8.7c2.9,3.7,5.1,7.8,8.5,11
		c1.6,1.5,1.3,3.4,0.2,4.7c2.5,4.3,5.8,8.1,9,11.9c0.7,0.9,2.5,0.9,3.8,1.2c1.3,0.3,2.6,0.5,3.8,0.8c0,0.4-0.1,0.9-0.1,1.3
		c-1,0.6-2,1.3-3.2,2.1c0.5,0.9,0.9,1.9,1.5,2.7c5.1,6.3,10.2,12.7,15.5,18.9c5.2,6.1,10.7,12,16.1,18c1.3,1.5,2.8,2.9,3.7,4.6
		c3.5,6.8,9.5,11,15.6,14.9c2.1,1.4,4.9,2.1,7.4,2.2C960.4,577.9,964.4,573,962.6,566.8z"/>
	<path class="st0" d="M804.5,767c0.9-8.8-0.4-17.8-0.5-26.8c-0.1-14.8-0.3-29.7,0-44.5c0.3-13,1.2-26-1.8-38.9
		c-1.7-7.1-2.8-14.3-3.8-21.5c-0.4-3.3-1.6-6.3,5-6.4c12.8-0.2,25.5-3.2,38.2-4.2c10-0.8,17.3-6,24.5-11.8
		c6.3-5.1,10-11.7,10.7-19.9c0.9-10.3,2.4-20.6,2.4-30.8c0-7.6-1.9-15.2-3.1-22.8c-0.4-2.7-0.8-5.4-1.6-8c-1.7-5.1-5.2-7.5-10.6-7.4
		c-2,0-3.9,0-5.9,0c-4.7-0.1-8.8,4.9-8.1,9.6c0.9-1.1,1.8-2.3,2.8-3.6c0.6,0.6,1.7,1.5,1.6,1.8c-0.8,1.5-1.8,2.9-2.8,4.4
		c-0.6,0.9-1.6,1.7-1.7,2.7c-0.5,2.8-0.7,5.7-1,8.7c1.2-0.6,2.3-1.2,4.5-2.3c0,3.7,0,6.6,0,10.6c-2.1-1.1-3.5-1.8-5.3-2.7
		c-0.7,5.7-0.7,11.8-2.2,17.5c-1.5,5.7-4.7,10.9-7.2,16.5c0.7,0.1,2.3,0.5,4.8,1c-1.9-4.4-0.8-6.9,2.9-8.3c2.3,3.2-1.6,11.1-5.3,10
		c-6-1.8-10.7,1.5-16,2c-12,1.1-17.5-2.8-21.5-14.3c-4.2-12-3.8-24.5-4.5-36.9c-0.5-8.9-0.8-17.9-1.5-26.8c-0.2-2.3-1.2-4.7-2.3-6.8
		c-3-6.2-9.8-9-16.1-6.3c-1.2,0.5-1.7,2.9-2.8,4.9c-7.9,3.9-2.4,12-4.8,17.7c2,0.4,3.5,0.6,5,0.9c-0.2,1-0.1,2.5-0.7,2.9
		c-1.2,0.8-2.9,1-5.2,1.7c0.8,7,1.6,14.7,2.4,22.5c4.8-1.8-0.2-10.4,8.4-9.7c-0.2,2,0.4,5-0.8,6.2c-7.5,7.6-7.8,16.6-6.6,26.3
		c0.6,4.9,0.7,10,1,14.6c1,1.5,2,2.8,2.6,4.3c0.2,0.4-1.1,2.1-1.6,2c-1.1,0-2.1-0.8-3.6-1.5c-13.2,4.6-25.8,2-36.7-7.3
		c-7.9-6.7-13.9-14.6-15-25.7c-0.9-8.7-2.8-17.4-4.8-26c-0.6-2.7-2.4-7.1-4-7.2c-4.3-0.4-9.8-0.3-12.9,2
		c-10.1,7.7-13.1,18.6-10.8,31.1c0.9,4.7,1.2,9.6,1.3,14.4c0.1,5.2,1.3,9.7,4.4,14c4.9,6.5,9.4,13.3,14.1,20
		c8.1,11.6,19.4,17,33.4,17.2c8.2,0.1,16.4,0.6,24.5,1.2c6.1,0.4,8.6,3.5,8.6,9.3c0,11.7,0,23.3,0.3,35c0,0.9,1.3,2.6,2.1,2.6
		c2.8,0.2,5.2,1.1,4.5,4.1c-0.2,0.7-3.3,0.7-5.5,1c0,9.6-0.2,18.5,0.1,27.4c0.2,9.1,0.9,18.2,1.3,27c1.8,0.9,3.2,1.5,5.3,2.6
		c-5.6,3.2-3.5,7.5-3.5,11.7c0,10.1-1,20.2-1.7,30.4c-0.2,2.7-0.3,5.4-0.5,8c1.6,0.3,3,0.5,4.4,0.7c-0.9,1.2-1.9,2.3-2.7,3.5
		c-0.5,0.8-1.1,1.8-1.1,2.6c0.2,6.7,0.6,13.3,1,20c0.4,6,1.1,12,1.5,18.1c0.5,7.3,0.7,14.5,1.1,22.5c1.6-0.9,2.7-1.5,3.8-2.1
		c1.1-0.6,2.3-1.1,3.5-1.4c0.2-0.1,1.1,1.6,1,1.7c-0.9,0.8-2,1.5-2.4,1.8c-0.2,2-0.4,3.5-0.5,5c-1.3-0.3-2.6-0.5-4.1-0.8
		c1,2.9,1.6,6.1,3.2,8.7c1.5,2.3,3.8,5.1,6.2,5.6c3.7,0.7,6.4-2.2,7.6-5.8c1.1-3.5,2.3-6.9,3-10.5c3-15.3,3.6-30.8,2.6-46.3
		C804.2,795.5,803,781.3,804.5,767z M861.1,526.3c0.1,0.4,0.2,0.7,0.3,1.1c-1,0.9-2,1.9-3,2.8c-1.3-1.4-2.3-2.5-3.6-3.9
		C857.3,526.3,859.2,526.3,861.1,526.3z M848.3,568.7c0.1-0.6,2.3-0.7,4.2-1.3c-1,2.8-1.5,4.5-2.1,6.2c-0.5,0.1-1.1,0.2-1.6,0.3
		C848.6,572.2,848,570.4,848.3,568.7z M788.1,832.6c-0.7,1.1-2.5,2-3.9,2c-0.7,0-1.5-1.9-2.3-2.9c1.2-0.6,2.3-1.3,3.5-1.9
		c-0.9-3.9-0.9-3.9,6.3-5.7C790.3,827.6,789.5,830.3,788.1,832.6z"/>
	<path class="st0" d="M775.5,679.4c0.2,0,0.3-0.1,0.5-0.1c0-0.1,0-0.3,0-0.4C775.2,679.5,775.3,679.4,775.5,679.4z"/>
	<path class="st0" d="M622.5,285.7c-2.1,5.8-0.3,12.7,3.1,14.2c-0.3,2-1,3.7-0.7,5.3c1.5,8.3,2.1,17.1,5.2,24.8
		c3,7.5,7.2,15,14.1,20.2c1.1,0.8,2.3,1.6,3.6,1.9c6.9,1.6,14,2.8,20.9,4.5c3.3,0.8,6.4,2.4,9.7,3.5c1.6,0.5,3.3,0.4,5.6,0.7
		c-0.2,0.8-0.1,2.6-0.8,3c-4,2.2-2.4,5.9-2.3,8.9c0.3,5.9,0.9,11.8,1.7,17.6c0.8,5.7,1.8,11.3,3.3,16.8c1,4,5.3,6,9,4.3
		c4.3-2.1,8.6-4.6,10.2-9.8c2.1-7,3.4-14,2.3-21.5c-1-7-0.5-14.2-0.2-21.3c0.1-1.8,2-4,3.7-5c2.4-1.4,5.5-1.6,8.1-2.9
		c4.4-2.2,8.9-4.2,12.1-8.6c2.8-3.8,7.2-6.5,10.4-10c7.2-7.9,9.7-17.8,10.4-28.1c0.8-11.5,1.8-23,1.2-34.4
		c-0.7-11.4-4.5-22.3-11.8-31.4c-3-3.7-7.5-4.3-12-3.5c-1,4.8,0.6,10.2-4.1,14c-1.6,1.3,1.5,11,2.5,11.6c0.3,5.4,0.5,10,0.8,15.4
		c1.3-1.2,1.9-1.7,3-2.7c0,3.8,0.3,7,6,4.6c-0.1,0.7-0.2,1.3-0.3,2c-1.5,1.3-2.9,2.8-4.7,3.7c-3.2,1.6-5.6,2.9-0.4,5.1
		c1,0.4,1.9,0.9,2.9,1.3c-0.4,0.6-0.8,1.2-1.2,1.8c-1.5-0.4-2.9-0.8-3.9-1c-0.6,6.7-0.8,13.7-1.9,20.5c-1,6-3.7,11.3-10.8,12.6
		c-5.3,1-9.4-1.2-10-6.5c-0.9-8.5-1.4-17.1-1.8-25.7c-0.8-15.9-1.1-31.8-2.1-47.7c-0.4-6.7-5.5-11.1-10.2-15.1
		c-3.5-3-11.8,0.4-13.1,5.6c-2.4,9.8-3.9,19.8-5.7,29.7c0.4,0.1,0.9,0.3,1.3,0.4c0.7-1.1,1.5-2.1,2.2-3.2c0.5,0,1,0.1,1.6,0.1
		c0,1.9,0.5,3.9-0.2,5.5c-0.4,0.9-2.5,1.1-4.7,2c0.6,12.8,1.2,26.3,1.8,39.8c0.1,3.2-0.1,6.3-0.2,9.5c-0.2,3.8-1.9,6.3-5.9,6.8
		c-4.3,0.5-7.8-0.4-9.9-4.7c-4.9-10.1-7.3-20.9-7.9-32.1c-0.6-11.2-0.8-22.5-1.3-33.7c-0.4-10.4-7.3-19.4-16.1-21.3
		c-2.8-0.6-5.1-0.5-6.2,2.7c-1.4,4.3-2.6,8.9-4.5,13c-2.1,4.4-0.2,9.8-4.1,13.9c-1.4,1.4-0.7,4.8-1,7.9c1.2-0.9,2.2-1.8,3-2.4
		c0.8,1.7,1.5,3.3,2.6,5.9c-2,0.1-3.9,0.2-6.3,0.4C619.2,278.1,617.6,282.8,622.5,285.7z M676.2,281.9c0.4-2.3,0.8-4.5,1.2-6.8
		c0.7,0.1,1.4,0.2,2.1,0.3c-0.3,2.3-0.7,4.6-1,6.9C677.7,282.2,676.9,282.1,676.2,281.9z M637.9,330.8c0,0.1,0,0.3,0,0.4h0
		c-2.3,0-4.5,0-6.8,0c0-0.7,0-1.3,0-2c1.7-2.2,3.9-3.2,6.3-1.1C638,328.6,637.8,329.8,637.9,330.8z M626.8,287.4
		c3.3,2.3,5.8,4.1,8.5,6c-5.5,4-9.1,3-12.7-3.5C624.1,289,625.6,288.1,626.8,287.4z"/>
	<path class="st0" d="M794.3,313.3c1.5,5.3,4.5,10.3,7.7,14.8c4.7,6.6,8,14.4,15.8,18.5c6.9,3.6,13.8,7,21.8,7.1
		c6.6,0.1,8.5,1.5,10.5,7.8c0.4,1.2,1.2,2.3,1.7,3.3c-0.5,1.5-1.8,3.5-1.4,5c1.8,7.2,3.8,14.3,6.2,21.3c1.3,3.7,5.2,4.4,8.4,3.8
		c2.1-0.4,5.1-2.3,5.7-4.2c2.2-7.2,3.8-14.5,5.2-21.9c0.7-3.7,0.7-7.6,0.7-11.3c0.1-3.8,2.4-5.2,5.6-6.1c3.7-1,8-1.4,10.9-3.6
		c8.3-6.2,18.6-10.1,23.8-20c0.8-1.6,1.5-3.3,1.9-5c3.6-15.5,1.9-31.1,1.3-46.7c-0.3-7.1-1.4-14.2-2.4-21.2
		c-1.2-8-6.5-12.5-14.7-15.6c-1,2.6-2.1,5.1-2.8,7.7c-1,3.6-1.6,7.2-2.5,10.9c-0.1,0.4-0.2,1.1-0.5,1.2c-4.8,1.3-3.1,5.2-3.2,8.2
		c-0.2,9.8-0.1,19.7,0.7,29.6c0.7-1.4,1.5-2.9,2.4-4.7c1.8,4.3,1,6-2.4,7.3c-1,6.4-2,12.7-3,18.8c-2.6,2.9-6.7,4.7-6.5,9.6
		c0,0.5-0.9,1.4-1.4,1.5c-3.6,0.9-8.9-3.6-9-7.6c-0.1-14.4,0.2-28.8-0.2-43.2c-0.4-13.4,0-27.1-5.2-40c-2.8-6.9-6.7-12.5-14.2-14.8
		c-2.6-0.8-3.6-0.7-4.7,2.4c-2.2,6.4-1.8,12.9-2,19.4c-0.2,4.8-1.2,9.6-1.8,14.4c-0.6,0-1.2-0.1-1.9-0.1c0-4.1,0-8.2,0-12.3
		c-0.3-0.1-0.5-0.2-0.8-0.4c-0.4,1.1-1.1,2.3-1.1,3.4c0.1,11.4,0.3,22.7,0.7,34.1c0.4,11.2,1.1,22.4,1.4,33.6
		c0.1,5.1-4.1,8.1-8.6,5.9c-7.7-3.7-14.7-8.5-15.8-18c-1.5-13.5-2.4-27.1-4.1-40.6c-1-8-3-16-5-23.9c-0.4-1.6-2.5-3.7-4-3.9
		c-3.7-0.4-7.5-0.1-11.2,0.5c-1,0.2-1.7,2.4-2.5,3.6c0,0,0.1-0.1,0.1-0.1c0,0,0,0.1,0,0.1c1.2-0.3,2.4-0.5,3.6-0.8
		c0,1.3,0.2,2.6-0.1,3.8c-0.4,1.7-1,3.4-1.8,5c-0.5,0.9-1.6,1.4-3,2.5c0.5-4.2,0.9-7.4,1.2-10.6c0,0,0,0,0,0
		c-2.7,5.9-5.4,11.7-4.1,18.7c0.5-0.9,1-1.5,1.4-2.2c4,2.6,3.7,5.9-0.5,8.9c-1,0.7-2.2,2-2.2,3c-0.2,5.3-0.7,10.6,0.1,15.8
		C790,295.3,791.7,304.4,794.3,313.3z M898.2,288c-3.3-3.8-3-6.8,0-8C898.2,282.8,898.2,285.4,898.2,288z M892,318.2
		C892,318.2,892,318.2,892,318.2c1.5-1.4,3-2.8,4.5-4.1c0.4,0.6,0.9,1.2,1.3,1.8C895.2,315.5,897.4,323.1,892,318.2
		C892,318.2,892,318.2,892,318.2C892,318.3,892,318.2,892,318.2z"/>
	<path class="st0" d="M738.3,659.8c-4.6-2.2-14.6,1.1-16.5,5.6c-3.8,8.8-6.8,18-10.4,27.6c2.9-1.3,2.2-6.5,6.8-4.5
		c-1.3,3.9-2.9,6.6-6.6,8.8c-3.2,1.9-4.8,6.5-7.8,11c2.5-0.3,3.5-0.4,5.1-0.6c-1.2,1-1.9,2.2-2.6,2.2c-5.1-0.3-6.8,3.6-8.1,7.1
		c-1.8,4.7-2.7,9.6-4.1,14.4c-0.4,1.3-1,2.5-1.6,3.7c-1.9,3.9-6.4,6.7-2.9,12.3c1.7,2.7,1.7,6.8,1.4,10.2c-0.4,3.8-2.1,7.5-3.3,11.3
		c-0.8,2.7-1.3,5.5-2.5,7.9c-1,2-2.6,3.9-4.5,5.2c-2.5,1.8-4.2,3.1-0.8,5.5c0.4,0.3,0.8,1,0.7,1.5c-0.8,4.9-1.4,9.8-2.8,14.6
		c-2,6.9-4.6,13.6-6.7,20.4c-0.4,1.4-0.5,3-0.2,4.5c1.1,5,2.6,6.2,7.6,5c8.1-2,16.5-3.9,19.8-13.2c1.5-4.2,2.7-8.6,4.1-12.9
		c3.4-10.1,7-20.2,10.1-30.4c3.1-10.1,5.7-20.4,8.6-30.6c0.7-2.5,1.5-4.9,2.4-7.3c2.6-6.9,5.1-13.9,7.9-20.7c1.7-4.2,4-8.2,5.7-12.4
		c3.2-8,5.7-16.3,9.3-24.1c2.6-5.6,1.2-10.9-0.1-15.9C745.4,663.4,741.3,661.2,738.3,659.8z M690.8,787.3c1.9-1.1,3.8-2.2,6.4-3.8
		C697,789.2,694.1,788.7,690.8,787.3z M693.8,748.3c-0.4-0.1-0.9-0.3-1.3-0.4c-0.5-8.7,1.5-13.8,5.8-13.2
		C696.7,739.3,695.3,743.8,693.8,748.3z M701.8,762.4c-1.5-1.9-3.2-3.2-3-4.1c0.3-1.5,1.8-2.8,2.8-4.2c1.1,0.8,3.2,1.8,3,2.4
		C704.3,758.2,703.1,759.8,701.8,762.4z M708,715.7c-1.5,3.4-3.4,6.6-5.3,9.8c-0.7,1.1-2.2,1.6-3.3,2.4c-0.4-0.3-0.8-0.7-1.2-1
		c0.7-1.6,1.3-3.2,2-4.7c1.3-2.7,2.7-5.4,4.3-8c0.5-0.8,1.7-1.1,2.6-1.7C707.4,713.4,708.3,714.9,708,715.7z M717.8,683.5
		c3.6-4.3,2.6-11.1,8.2-14.7C726.6,674.3,722.2,682.3,717.8,683.5z"/>
	<path class="st0" d="M904.4,763.4c-1-3-1.6-6.4-3.4-8.9c-8.1-11.3-12.6-24.1-16.5-37.3c-3.9-13.4-11-25.2-18.2-37
		c-4.8-7.9-10.5-14.4-18-19.3c-2.4-1.6-5.5-2-8.9-3.3c0.2,2.8,0.6,3.9,0.3,4.7c-1.2,3.3-3.6,6.5-3.8,9.8c-0.3,3.5,0.8,7.5,2.2,10.8
		c5.6,13.2,11.7,26.3,17.4,39.5c5.5,12.8,10.1,26.1,16.2,38.6c6.5,13.3,10.8,27.8,20.4,39.5c2.1,2.6,3.5,5.8,5.4,8.5
		c0.6,0.8,2,1.3,3.1,1.5c6.6,0.8,12.1-4.1,12.2-11c0.2-9.6-2.4-18.6-5.8-27.4C905.8,769.2,905.4,766.2,904.4,763.4z"/>
	<path class="st0" d="M216.3,312.8c6.4,0.5,12.8,0.4,19.3,0.7c2.4,0.1,4.7,0.4,7.1,0.5c13.5,0.4,27,0.5,40.5,1.2
		c9.4,0.5,18.5,1.3,28-1c5.2-1.3,11.4,0.7,17,1.9c8.6,1.7,11.9-0.1,14.3-8.6c2-7,2.1-13.7-2.6-19.9c-3.7-5-8.3-6.4-14.5-6.1
		c-11.9,0.6-23.9,0.1-35.8,0c-7.9,0-15.8,0-23.7-0.2c-10.1-0.3-20.2-1-30.1,2.3c-3.4,1.1-7.4,0.3-11.1,0.3c-3.7,0-6.2,1.3-5.8,6.3
		c-1.7-1.3-2.7-2-4.5-3.3c-1.5,8.1-3.5,15.4-1.4,23C213.4,311,215.1,312.8,216.3,312.8z M217.5,293.9c3.5,5.6-2.4,6.5-3.4,9.6
		c-0.5-0.2-1.1-0.4-1.6-0.7C214.1,300,215.7,297.1,217.5,293.9z"/>
	<path class="st0" d="M679.7,779.6c6.6-6,3.5-15.3,8-22C681,763.5,681.3,771.9,679.7,779.6z"/>
	<path class="st0" d="M506.4,640.8c1.2,1.5,3.1,3,2.8,3.8c-0.4,1.3-2,2.5-3.3,3.1c-5.6,2.4-6.1,4.4-3,9.2c1.1,1.7,0.8,4.4,1.1,6.8
		c3.2-2.3,6.7-4.7,9.9-6.9c0.3-6.5,0.6-13,0.9-19.6c0.3-0.1,0.5-0.1,0.8-0.2c0.4,1,0.7,2.1,1.4,2.9c0.5,0.5,1.6,0.8,2.4,0.7
		c0.5-0.1,1.1-1.1,1.1-1.7c0.3-2.9,0.4-5.8,0.6-8.9c-2,0.7-4.1,1.3-7.3,2.3c1-2.6,1.6-3.9,2.2-5.5
		C506.1,627.6,510.9,637.5,506.4,640.8z"/>
	<path class="st0" d="M472.6,335.8c0-1.7,0.1-3.3,0.3-5.7c-1.2-0.5-2.9-1.1-4.6-1.8c-1.4,2.3-2.9,4.4-4.1,6.6
		c-0.6,1.1-1.2,2.6-1,3.8c1,4.7,2.4,9.4,3.7,14.5c3.1-1.9,7.1-2.9,5.4-8.2c-0.4-1.2,0.6-2.9,0.7-4.4
		C473.1,339,472.7,337.4,472.6,335.8z"/>
	<path class="st0" d="M449.4,571.5c0.3,3.6-0.4,6.1-3.7,7.2c0.5,1.7,1,3.2,1.5,4.7c0.1,0.4,0.3,0.9,0.4,1.3c1.9-0.8,3.8-1.5,6.5-2.6
		c-1.6-1.4-2.3-2-3.2-2.8c1.9-6.4,4-13,6-19.7C453.3,561,449.1,566.9,449.4,571.5z"/>
	<path class="st0" d="M447.7,584.8C447.7,584.8,447.7,584.8,447.7,584.8l0,0.1C447.8,584.9,447.8,584.8,447.7,584.8
		C447.7,584.8,447.7,584.8,447.7,584.8C447.7,584.8,447.7,584.8,447.7,584.8z"/>
	<path class="st0" d="M534.6,403.6c-1.6,5.7-3.3,11.3-4.9,16.9c1.8,0,1.9,0.1,6.4-9.6c1.7-3.7,2.6-7.9,3.8-11.8
		c-0.5-0.2-0.9-0.5-1.4-0.7c-1.4,1.8-2.7,3.6-4.1,5.4c0,0,0,0,0,0C534.4,403.8,534.6,403.6,534.6,403.6z"/>
	<path class="st0" d="M533.8,545.9c0.4-0.5-0.3-3-1.1-3.4c-0.9-0.4-2.9,0.2-3.5,1c-1.9,2.6-3.4,5.6-5.1,8.4c-0.9,1.5-1.9,2.9-3.3,5
		c1.2-0.1,2.4,0.1,2.9-0.4C527.2,553.1,530.6,549.6,533.8,545.9z"/>
	<path class="st0" d="M406.3,518c0.5,0.5,1,0.9,1.6,1.4c3.7-4,7.4-8.1,11-12.1c-0.6-0.5-1.2-1.1-1.8-1.6
		C413.5,509.7,409.9,513.9,406.3,518z"/>
	<path class="st0" d="M379.5,579.2c0.4,0.2,0.8,0.4,1.2,0.7c2.3-4.1,4.5-8.3,6.8-12.4c-0.6-0.3-1.2-0.7-1.7-1
		C381.6,569.7,380.4,574.4,379.5,579.2z"/>
	<path class="st0" d="M372,595.4c0.4,0.3,0.8,0.6,1.3,0.9c4.1-3.5,6.1-8.1,7-13.3c-0.4-0.2-0.8-0.5-1.2-0.7
		C376.7,586.6,374.3,591,372,595.4z"/>
	<path class="st0" d="M395.4,540.3c0.5,0.2,1,0.5,1.5,0.7c2-4.7,4-9.3,6-14C399.1,530.8,395.6,534.7,395.4,540.3z"/>
	<path class="st0" d="M560.2,692.6c1.3-3.4,2.5-6.8,3.9-10.6c-4,0.4-6.5,5.9-5.5,10C559.2,692.1,559.7,692.3,560.2,692.6z"/>
	<path class="st0" d="M447.7,585c-1.5,1.4-2.9,2.7-4.4,4.1c4.1,1.4,7.6,2.6,9.9-2c-0.3-0.1-0.6-0.1-0.9-0.2c-1.6,0-3.2,0.8-4.1-0.1
		C447.9,586.5,447.7,585.9,447.7,585z"/>
	<path class="st0" d="M447.7,584.8c0,0.1,0,0.1,0,0.2c0,0,0,0,0,0c0,0,0,0,0,0C447.7,585,447.8,585,447.7,584.8
		C447.8,584.9,447.7,584.8,447.7,584.8z"/>
	<path class="st0" d="M532.2,724.7c1.5-1.3,3.7-2.3,4.2-3.9c0.5-1.7-0.8-3.9-1.3-5.8c-0.6,0.1-1.2,0.3-1.9,0.4c0,1.5,0.2,3-0.1,4.4
		c-0.3,1.4-1.2,2.6-1.8,3.9C531.6,724.1,531.9,724.4,532.2,724.7z"/>
	<path class="st0" d="M364.8,631c1.2-3.5,2.5-7.1,3.7-10.6C364.8,619.9,362.4,625.2,364.8,631z"/>
	<path class="st0" d="M447.8,392.3c0.2,2.4,0.3,4.7,0.5,7.1c1.3-0.4,3.7-1,3.7-1.1c-0.3-2.2-1.1-4.3-1.7-6.4
		C449.5,392,448.7,392.1,447.8,392.3z"/>
	<path class="st0" d="M482.4,442c2.3-2.1,5.8-3.8,3.3-8.4C481,435,482.8,439,482.4,442z"/>
	<path class="st0" d="M567,603.1c-0.5-0.2-1-0.3-1.5-0.5c-0.7,3.1-1.5,6.1-2.3,9.5C566.2,611.7,566.2,611.7,567,603.1z"/>
	<path class="st0" d="M539.6,499.5c-4.5-1.4-6.7,0.7-6.1,6.6C536,503.4,537.6,501.6,539.6,499.5z"/>
	<path class="st0" d="M558.1,718.1c-5.9,0.2-7.3,2.1-5.1,7.6C554.8,723,556.2,720.8,558.1,718.1z"/>
	<path class="st0" d="M449.5,423.7c-0.9,0.3-2,0.7-2.5,1.5c-0.9,1.6-1.5,3.4-2.4,5.7c4.4,0.2,4.6-3.4,6-5.7
		C450.7,424.9,449.7,423.6,449.5,423.7z"/>
	<path class="st0" d="M363.7,637c-1.5,0-3.1,0.3-5.4,0.5c1.4,2,2.1,3,3.1,4.4c1.1-1,2.3-1.7,3-2.8C364.7,638.7,364,637,363.7,637z"
		/>
	<path class="st0" d="M565.9,672.4c-0.5-0.2-0.9-0.5-1.4-0.7c-1,2.1-2,4.2-3.1,6.7C565.7,677.9,566.4,676.7,565.9,672.4z"/>
	<path class="st0" d="M394.2,545.5c-3.1,1.9-6.1,3.7-9.1,5.5C393,551,393.6,550.7,394.2,545.5z"/>
	<path class="st0" d="M385.1,551.1C385.1,551.1,385.1,551.1,385.1,551.1C385.1,551.1,385.1,551.1,385.1,551.1
		C385.1,551.1,385.1,551.1,385.1,551.1C385.1,551.1,385.1,551.1,385.1,551.1z"/>
	<path class="st0" d="M339.3,799c-0.9,2.2-1.8,4.4-2.7,6.6c4-0.8,4.9-3.1,4.3-5.9C340.4,799.4,339.8,799.2,339.3,799z"/>
	<path class="st0" d="M493.9,672.7c-1.2,1.5-2.5,3-3.6,4.6c-0.1,0.1,0.8,1,1.3,1.5c1.4-1.5,2.8-3,4.2-4.5
		C495.1,673.8,494.5,673.2,493.9,672.7z"/>
	<path class="st0" d="M511.7,489.6c0.6,0.2,1.2,0.4,1.7,0.6c0.5-1.8,1-3.6,1.7-5.9C510.2,484.8,511.4,487.4,511.7,489.6z"/>
	<path class="st0" d="M249,525.5c-1,0.3-2.7,0.4-3,1c-2.9,6.3-5.5,12.8-8.2,19.2c-0.3,0.7-0.1,1.7-0.6,2.1
		c-4.2,3.7-4.5,9.1-6.4,13.8c-1.2,3-3.2,5.7-5.2,9.2c5.5,0.1,6.9-3.2,8.2-6.4c1.7-4.3,2.8-8.9,4.7-13.1c3.4-7.8,7.2-15.5,10.7-23.3
		C249.6,527.4,249.1,526.3,249,525.5z"/>
	<path class="st0" d="M305.8,627.6c-2.1,2.8-4.4,5.1-8.1,5.8c-0.4,0.1-0.6,1-1.2,2.1c1.3,0.4,2.5,0.6,3.6,1.1
		c0.9,0.4,1.6,1.2,2.4,1.8c-0.8,0.6-1.6,1.3-2.5,1.7c-1.3,0.6-2.8,0.9-4.2,1.4c0.2,0.5,0.4,1,0.6,1.5c9.7,1.5,15.4-5.2,12-14.4
		C308.2,628,306,627.3,305.8,627.6z"/>
	<path class="st0" d="M281.5,689.8c0.1,0.4,0.3,0.9,0.4,1.3c1.4-0.6,3.5-0.9,4.1-2c2.8-5.4,6.3-10.6,7.1-16.8
		c-0.5-0.2-1.1-0.5-1.6-0.7C288.2,677.7,284.8,683.8,281.5,689.8z"/>
	<path class="st0" d="M223.8,590.8c2.3-1.8,4.2-3,3.5-6.8c-0.5-2.6,1.5-5.6,2.5-8.7C223.9,575.6,220.9,584.2,223.8,590.8z"/>
	<path class="st0" d="M256.7,503.2c-6.4,4.2-7.4,6.9-4.3,11.5C256.3,512.5,257.9,508.5,256.7,503.2z"/>
	<path class="st0" d="M247.3,523.1c0.8,0.4,2.5,0.5,3,0c1.5-1.6,2.7-3.5,4.3-5.7c-2.3-0.8-9.2,1.7-9.1,3
		C245.6,521.4,246.4,522.6,247.3,523.1z"/>
	<path class="st0" d="M233.7,643.5c-0.1,0.3,1.7,1.8,2.4,1.6c3-0.9,4.4-2.8,3-6.2C235.6,638.5,234.4,640.9,233.7,643.5z"/>
	<path class="st0" d="M222.6,598.9c-1.6,0.6-3.3,1.2-5,2c-0.5,0.3-1.1,0.9-1.2,1.5c0,0.4,0.8,1.1,1.3,1.2
		C221.8,604.6,223.6,602.5,222.6,598.9z"/>
	<path class="st0" d="M222.6,640.9c-1.1,0.1-2.2,1.3-4,2.6c1.5,1.2,2.6,2.5,3.1,2.3c1.2-0.5,2.2-1.6,3.2-2.5
		C224.2,642.5,223.3,640.9,222.6,640.9z"/>
	<path class="st0" d="M224.1,608.6c-0.8-0.4-2.1-1.3-2.3-1.1c-1.2,1.1-2.2,2.6-3.3,3.9c0.6,0.5,1.3,1,1.9,1.5
		C221.6,611.5,222.8,610,224.1,608.6z"/>
	<path class="st0" d="M264.4,439.2c-2.8,1.4-5.7,2.7-8.5,4.1c0.3,0.5,0.6,1.1,0.9,1.6c2.8-1.4,5.6-2.7,8.4-4.1
		C265,440.3,264.7,439.7,264.4,439.2z"/>
	<path class="st0" d="M785.4,829.8c-1.2,0.6-2.3,1.3-3.5,1.9c0.8,1,1.6,3,2.3,2.9c1.3,0,3.2-0.9,3.9-2c1.4-2.3,2.2-5,3.7-8.5
		C784.5,825.9,784.5,825.9,785.4,829.8z"/>
	<path class="st0" d="M850.4,573.7c0.6-1.7,1.1-3.4,2.1-6.2c-1.8,0.5-4.1,0.7-4.2,1.3c-0.3,1.7,0.3,3.5,0.5,5.3
		C849.3,573.9,849.9,573.8,850.4,573.7z"/>
	<path class="st0" d="M861.4,527.4c-0.1-0.4-0.2-0.7-0.3-1.1c-1.9,0-3.8,0-6.3,0c1.3,1.5,2.3,2.5,3.6,3.9
		C859.4,529.3,860.4,528.4,861.4,527.4z"/>
	<path class="st0" d="M635.3,293.4c-2.7-1.9-5.2-3.7-8.5-6c-1.2,0.7-2.7,1.6-4.2,2.5C626.2,296.3,629.8,297.3,635.3,293.4z"/>
	<path class="st0" d="M631.1,329.3c0,0.7,0,1.3,0,2c2.3,0,4.5,0,6.8,0h0c0-0.1,0-0.3,0-0.4c0-1,0.1-2.3-0.4-2.7
		C635,326.1,632.8,327.1,631.1,329.3z"/>
	<path class="st0" d="M679.5,275.5c-0.7-0.1-1.4-0.2-2.1-0.3c-0.4,2.3-0.8,4.5-1.2,6.8c0.8,0.1,1.5,0.3,2.3,0.4
		C678.8,280,679.1,277.8,679.5,275.5z"/>
	<path class="st0" d="M795.7,250c0.8-1.5,1.4-3.2,1.8-5c0.3-1.2,0.1-2.5,0.1-3.8c-1.2,0.3-2.4,0.5-3.6,0.8
		c-0.4,3.1-0.7,6.3-1.2,10.6C794.1,251.4,795.2,250.9,795.7,250z"/>
	<path class="st0" d="M794,241.9c0,0-0.1,0.1-0.1,0.1c0,0,0,0,0.1,0c0,0,0,0,0,0C794,242,794,241.9,794,241.9z"/>
	<path class="st0" d="M898.2,288c0-2.6,0-5.3,0-8C895.2,281.2,894.8,284.2,898.2,288z"/>
	<path class="st0" d="M897.8,315.8c-0.4-0.6-0.9-1.2-1.3-1.8c-1.5,1.4-3,2.8-4.4,4.2C897.4,323.1,895.2,315.5,897.8,315.8z"/>
	<path class="st0" d="M892,318.2C892,318.2,892,318.3,892,318.2C892,318.2,892,318.2,892,318.2C892,318.2,892,318.2,892,318.2z"/>
	<path class="st0" d="M704.4,714c-1.6,2.6-2.9,5.3-4.3,8c-0.8,1.5-1.4,3.2-2,4.7c0.4,0.3,0.8,0.7,1.2,1c1.1-0.8,2.6-1.3,3.3-2.4
		c2-3.1,3.8-6.4,5.3-9.8c0.4-0.8-0.6-2.2-1-3.4C706.1,712.9,704.9,713.2,704.4,714z"/>
	<path class="st0" d="M717.8,683.5c4.5-1.2,8.8-9.2,8.2-14.7C720.3,672.4,721.4,679.3,717.8,683.5z"/>
	<path class="st0" d="M692.5,747.9c0.4,0.1,0.9,0.3,1.3,0.4c1.5-4.5,2.9-9,4.4-13.6C694,734.2,692,739.2,692.5,747.9z"/>
	<path class="st0" d="M701.6,754.1c-1,1.4-2.5,2.6-2.8,4.2c-0.2,0.9,1.5,2.2,3,4.1c1.3-2.6,2.5-4.1,2.8-5.8
		C704.7,755.9,702.7,754.9,701.6,754.1z"/>
	<path class="st0" d="M697.2,783.5c-2.6,1.6-4.5,2.7-6.4,3.8C694.1,788.7,697,789.2,697.2,783.5z"/>
	<path class="st0" d="M217.5,293.9c-1.8,3.2-3.4,6.1-5,9c0.5,0.2,1.1,0.4,1.6,0.7C215.2,300.4,221,299.4,217.5,293.9z"/>
</g>
</svg>
